<?xml version="1.0" standalone="no"?>
<!DOCTYPE svg PUBLIC "-//W3C//DTD SVG 1.1//EN" "http://www.w3.org/Graphics/SVG/1.1/DTD/svg11.dtd" >
<svg xmlns="http://www.w3.org/2000/svg">
<metadata></metadata>
<defs>
<font id="itc_avant_garde_gothic_stdMd" horiz-adv-x="1208" >
<font-face units-per-em="2048" ascent="1516" descent="-532" />
<missing-glyph horiz-adv-x="604" />
<glyph unicode="&#xfb01;" horiz-adv-x="1040" d="M10 948v166h152v76q0 125 43 196.5t106.5 106.5t136 43t132.5 8v-168q-27 0 -63 -4t-67.5 -22.5t-53 -57.5t-21.5 -112v-66h526v-1114h-213v948h-313v-948h-213v948h-152zM688 1290v226h213v-226h-213z" />
<glyph unicode="&#xfb02;" horiz-adv-x="1040" d="M10 948v166h152v76q0 125 43 196.5t106.5 106.5t136 43t132.5 8v-168q-27 0 -63 -4t-67.5 -22.5t-53 -57.5t-21.5 -112v-66h313v399h213v-1513h-213v948h-313v-948h-213v948h-152z" />
<glyph horiz-adv-x="0" />
<glyph unicode="&#xd;" horiz-adv-x="604" />
<glyph unicode=" "  horiz-adv-x="604" />
<glyph unicode="&#x09;" horiz-adv-x="604" />
<glyph unicode="&#xa0;" horiz-adv-x="604" />
<glyph unicode="!" horiz-adv-x="614" d="M197 0v266h221v-266h-221zM197 428v1088h221v-1088h-221z" />
<glyph unicode="&#x22;" horiz-adv-x="829" d="M172 909v607h166v-607h-166zM489 909v607h168v-607h-168z" />
<glyph unicode="#" d="M51 510l17 145h254l28 209h-252l19 148h254l53 381h151l-53 -381h219l54 381h151l-53 -381h264l-18 -148h-269l-28 -209h264l-16 -145h-269l-57 -418h-150l58 418h-219l-58 -418h-153l59 418h-250zM473 655h219l29 209h-219z" />
<glyph unicode="$" d="M166 461h221q8 -111 74.5 -169.5t148.5 -58.5q45 0 84 17.5t66.5 46.5t44 67.5t16.5 81.5q0 66 -28.5 110t-74.5 76t-105.5 53.5t-118.5 39.5q-43 12 -94.5 36.5t-95.5 66.5t-73.5 104.5t-29.5 154.5q0 82 26.5 149t70.5 115t102.5 78.5t121.5 43.5v188h180v-188 q147 -27 224.5 -127.5t81.5 -235.5h-203q-4 47 -22.5 83t-46 60.5t-60.5 38t-66 13.5q-37 0 -71.5 -14.5t-61 -41t-42 -62.5t-15.5 -79q0 -55 21.5 -93t61.5 -65.5t95 -48t123 -43.5q141 -51 231 -149.5t90 -239.5q0 -68 -22.5 -132.5t-65.5 -118.5t-106.5 -95t-145.5 -60 v-200h-180v200q-84 10 -149.5 47t-110.5 91.5t-69.5 122t-26.5 137.5z" />
<glyph unicode="%" horiz-adv-x="1630" d="M61 1190v2q0 74 27 138.5t75 111.5t112.5 74.5t138.5 27.5t138 -27.5t112.5 -74.5t75 -112.5t26.5 -139.5t-26.5 -138.5t-75 -112.5t-113 -74.5t-137.5 -26.5q-74 0 -138.5 26.5t-111.5 74.5t-75 112.5t-28 138.5zM213 1188q0 -86 56.5 -144.5t144.5 -58.5q86 0 144 58.5 t58 148.5q0 88 -57 146.5t-145 58.5t-144.5 -58.5t-56.5 -148.5v-2zM348 0l766 1516h160l-766 -1516h-160zM862 326v2q0 74 26.5 138t75 111.5t113 75t140.5 27.5q74 0 138 -27.5t111 -75t75 -113t28 -138.5q0 -76 -28 -140.5t-76 -112.5t-111.5 -75t-136.5 -27 q-74 0 -139.5 27t-112.5 75t-75 112.5t-28 140.5zM1012 324q0 -86 57 -145.5t148 -59.5q86 0 143 58.5t57 148.5t-57 147t-143 57q-90 0 -147.5 -58t-57.5 -146v-2z" />
<glyph unicode="&#x26;" horiz-adv-x="1517" d="M106 403q0 92 34 162t84 124t108.5 92t109.5 65q-78 82 -124 160.5t-50 177.5q0 74 29 139.5t80 114.5t118.5 77.5t147.5 28.5t147.5 -28.5t117.5 -76.5t78 -112.5t28 -136.5q0 -76 -26.5 -132.5t-66.5 -98t-87.5 -71.5t-90.5 -52l263 -267l178 351h225l-260 -494 l303 -309l-147 -144l-271 279q-31 -59 -69.5 -110.5t-91 -89.5t-121 -59.5t-160.5 -21.5q-113 0 -203 35t-152.5 95.5t-96.5 138t-34 163.5zM340 422q0 -51 19.5 -95t54.5 -78t82 -53.5t104 -19.5t100 15.5t77 43t61.5 67.5t52.5 89l-316 322q-127 -63 -181 -135t-54 -156z M479 1196q0 -39 13.5 -72.5t34 -62.5t45 -54.5t46.5 -50.5q47 27 84 50.5t63 50t39 59.5t13 76q0 68 -47 120t-125 52h-2q-74 0 -119 -51t-45 -117z" />
<glyph unicode="'" horiz-adv-x="477" d="M156 909v607h166v-607h-166z" />
<glyph unicode="(" horiz-adv-x="923" d="M168 500q0 152 42 307.5t127 295.5t212 256t297 185v-239q-84 -45 -163 -122t-142.5 -180.5t-101.5 -231.5t-38 -273q0 -141 37 -267.5t98.5 -230.5t142.5 -182t167 -125v-242q-172 76 -299 190.5t-212 254t-126 295t-41 309.5z" />
<glyph unicode=")" horiz-adv-x="923" d="M78 -311q84 45 164 121.5t143.5 180t101 231.5t37.5 274q0 141 -36.5 267t-99 230.5t-143.5 182t-167 124.5v244q172 -76 299 -191.5t212 -255t126 -295t41 -308.5q0 -152 -42 -307.5t-127 -296t-212 -255t-297 -184.5v238z" />
<glyph unicode="*" horiz-adv-x="1284" d="M301 1057l260 110l-260 107l72 129l233 -172l-39 285h150l-37 -287l231 174l70 -129l-258 -109l260 -108l-76 -133l-229 176l39 -285h-150l37 287l-227 -178z" />
<glyph unicode="+" horiz-adv-x="1228" d="M100 412v206h412v414h205v-414h411v-206h-411v-412h-205v412h-412z" />
<glyph unicode="," horiz-adv-x="608" d="M63 -156l130 424h225l-170 -424h-185z" />
<glyph unicode="-" horiz-adv-x="561" d="M0 475v211h561v-211h-561z" />
<glyph unicode="." horiz-adv-x="608" d="M195 0v266h223v-266h-223z" />
<glyph unicode="/" horiz-adv-x="1144" d="M143 -205l621 1721h240l-621 -1721h-240z" />
<glyph unicode="0" d="M74 506v495q0 109 27.5 192t72.5 143.5t101.5 100.5t116 63.5t114.5 33.5t98 10q86 0 179.5 -30.5t171 -95t129 -166t51.5 -242.5v-504q0 -154 -55.5 -256.5t-136.5 -163.5t-172 -88t-163 -27q-76 0 -169 27t-174 89.5t-136 164.5t-55 254zM313 500q0 -66 20.5 -123.5 t57.5 -100.5t91.5 -67.5t121.5 -24.5q61 0 114.5 24.5t91.5 67.5t60.5 100.5t22.5 123.5v516q0 43 -13.5 98t-46 103.5t-89 81t-144.5 32.5q-68 0 -121 -25.5t-90 -69.5t-56.5 -102.5t-19.5 -123.5v-510z" />
<glyph unicode="1" d="M219 1311v205h529v-1516h-242v1311h-287z" />
<glyph unicode="2" d="M111 0v190q119 111 235.5 220.5t233.5 220.5q55 49 105 97t89 99.5t63.5 107.5t26.5 124q0 129 -74.5 200.5t-187.5 71.5q-123 0 -188.5 -91t-69.5 -236h-231q4 100 29.5 191t88.5 169q41 55 92.5 90t104.5 55.5t103.5 27.5t91.5 7q113 0 202.5 -37t151 -101.5 t94.5 -149.5t33 -181q-2 -63 -15.5 -118.5t-42 -109.5t-73.5 -108.5t-107 -115.5q-106 -104 -211.5 -209t-214.5 -209h670v-205h-999z" />
<glyph unicode="3" d="M74 446h243q2 -55 23.5 -102t58.5 -83t86.5 -56.5t108.5 -20.5q63 0 114.5 21.5t85 58.5t52 87t18.5 108q0 57 -23.5 107t-65.5 85t-97 55.5t-119 20.5h-113v182h72q59 0 106.5 18.5t81 48.5t51 68.5t17.5 79.5q0 86 -50 146.5t-138 60.5q-53 0 -91 -19.5t-61.5 -48 t-35 -65.5t-13.5 -70h-238q4 115 48.5 194t109 128t141 71.5t148.5 22.5q92 0 169 -29.5t132 -81t87 -123t32 -153.5q0 -66 -18.5 -116t-48 -89t-65.5 -67.5t-73 -46.5q102 -35 161.5 -90.5t89.5 -111.5t38 -108.5t8 -81.5q0 -102 -40 -189t-109.5 -150.5t-165 -99.5 t-203.5 -36q-119 0 -235.5 48.5t-188.5 146.5q-47 68 -67.5 142.5t-22.5 137.5z" />
<glyph unicode="4" d="M20 279v180l719 1057h238v-1045h162v-192h-162v-279h-234v279h-723zM268 471h490v752z" />
<glyph unicode="5" d="M49 424h242q12 -55 41.5 -99t69.5 -76t88.5 -48.5t97.5 -16.5q63 0 119.5 26t99.5 69t68.5 100t25.5 123q0 63 -23.5 121.5t-65.5 101.5t-99.5 68.5t-124.5 25.5q-27 0 -59.5 -5t-68.5 -21.5t-71 -46t-67 -78.5l-197 49l135 799h768v-205h-582l-67 -371q37 25 95 52.5 t163 27.5q123 0 217 -47t157.5 -121t96.5 -165t33 -179q0 -98 -37 -193.5t-107.5 -172t-172 -124t-230.5 -47.5q-100 0 -192.5 32t-165 90.5t-123 142t-64.5 188.5z" />
<glyph unicode="6" d="M53 518q0 123 41 219.5t94 173.5l414 605h277l-293 -420q-16 -23 -33.5 -47.5t-36.5 -51.5q20 12 64.5 25.5t91.5 13.5q90 0 177 -34.5t155.5 -100t110.5 -161t42 -218.5q0 -117 -43 -218t-116.5 -175t-174 -116t-215.5 -42q-139 0 -248.5 50.5t-181.5 138.5 q-68 78 -96.5 175t-28.5 183zM291 498q0 -68 23.5 -125.5t65.5 -99.5t98.5 -65.5t121.5 -23.5q68 0 125 24.5t100 67.5t66.5 101.5t23.5 124.5q0 74 -25.5 133t-68.5 101t-99 64.5t-118 22.5q-55 0 -110.5 -20.5t-100.5 -60.5t-73.5 -101t-28.5 -141v-2z" />
<glyph unicode="7" d="M154 1311v205h905v-189l-596 -1327h-264l610 1311h-655z" />
<glyph unicode="8" d="M92 457q2 129 62.5 233.5t183.5 153.5q-31 18 -63.5 46t-59.5 65.5t-43 87t-16 108.5v2q0 74 29.5 144.5t87 125t141.5 88t190 33.5t189.5 -32.5t140.5 -88t87 -126t30 -146.5q0 -59 -16.5 -108.5t-42 -87t-58.5 -65.5t-64 -46q121 -47 182.5 -152.5t61.5 -234.5 q0 -104 -39 -192.5t-106.5 -154t-160.5 -102.5t-204 -37t-204 37t-161.5 102.5t-107.5 153.5t-39 193zM334 457q0 -53 20.5 -102.5t56 -87.5t85 -60.5t108.5 -22.5t108.5 22.5t85.5 60.5t56 88.5t20 103.5q0 55 -20 104t-56 87t-85 60.5t-109 22.5q-59 0 -109.5 -22.5 t-86 -60.5t-55 -87t-19.5 -104v-2zM391 1130q0 -45 16.5 -82.5t46 -65.5t68.5 -44t82 -16t82 16t68.5 44t46 66.5t16.5 84.5q0 45 -16.5 83.5t-46 67.5t-68.5 45.5t-82 16.5t-82 -16.5t-68.5 -45.5t-46 -67.5t-16.5 -83.5v-3z" />
<glyph unicode="9" d="M53 993q0 117 43 218.5t117 175t174 115.5t215 42q137 0 248 -50t182 -138q68 -78 95.5 -176.5t27.5 -182.5q0 -123 -40 -219t-93 -174l-414 -604h-276l293 420q16 25 34.5 49.5t34.5 48.5q-20 -12 -64 -25.5t-91 -13.5q-90 0 -177.5 35t-156 100.5t-110.5 160.5t-42 218 zM295 1014q0 -72 25.5 -131.5t67.5 -101.5t97.5 -64.5t116.5 -22.5q55 0 111.5 20.5t101.5 60.5t74 100.5t29 140.5v2q0 68 -24 125t-66 99t-98 65.5t-122 23.5q-68 0 -125 -24.5t-99 -67.5t-65.5 -100.5t-23.5 -124.5z" />
<glyph unicode=":" horiz-adv-x="608" d="M195 0v266h223v-266h-223zM195 848v266h223v-266h-223z" />
<glyph unicode=";" horiz-adv-x="608" d="M63 -156l132 424h225l-182 -424h-175zM193 848v266h223v-266h-223z" />
<glyph unicode="&#x3c;" horiz-adv-x="1228" d="M98 414v204l1032 457v-225l-813 -334l813 -334v-225z" />
<glyph unicode="=" horiz-adv-x="1228" d="M100 174v207h1028v-207h-1028zM100 651v205h1028v-205h-1028z" />
<glyph unicode="&#x3e;" horiz-adv-x="1228" d="M98 -43v225l813 336l-813 332v225l1032 -457v-204z" />
<glyph unicode="?" horiz-adv-x="1161" d="M91 1075q1 10 1 21q6 109 51 192.5t113 140t154 86t176 29.5q104 0 190 -35.5t146.5 -96t94.5 -138.5t34 -164q0 -68 -20.5 -123t-54.5 -102t-76 -90t-85 -82q-53 -51 -84 -93t-46 -78t-20.5 -66t-5.5 -58h-225q2 51 11.5 99t33 94t61.5 95.5t95 104.5q78 78 124 138.5 t48 140.5q0 98 -61.5 164.5t-170.5 66.5q-96 0 -163.5 -57.5t-81.5 -161.5q-2 -14 -3 -26.5t-1 -24.5h-234q-2 14 -1 24zM434 0v266h223v-266h-223z" />
<glyph unicode="@" horiz-adv-x="1576" d="M35 748q0 158 58.5 302t162.5 254.5t250.5 176t322.5 65.5q145 0 275.5 -47t228 -134t154.5 -208t57 -268q0 -129 -43 -232.5t-107.5 -177t-141 -112.5t-144.5 -39q-57 0 -113.5 32.5t-70.5 116.5q-43 -66 -101.5 -105.5t-150.5 -39.5q-47 0 -96.5 19.5t-89.5 59.5 t-64.5 99t-24.5 141q0 92 32 183.5t88 164t132 117.5t164 45q92 0 140 -41t71 -102l33 115h143l-131 -496q-2 -12 -10 -45t-8 -55q-2 -25 5 -41.5t19 -24.5t27.5 -11t27.5 -3q41 0 90.5 29.5t92.5 86t71.5 136t28.5 178.5q0 125 -48 224t-128 168t-184.5 104.5t-216.5 35.5 q-141 0 -261 -53t-209.5 -144.5t-139.5 -214t-50 -262.5q0 -109 38 -223t118 -208.5t201.5 -156t291.5 -61.5q68 0 138.5 12.5t138 37t130 62.5t114.5 91l47 -104q-63 -66 -142.5 -109t-157 -69.5t-148.5 -37t-118 -10.5q-197 0 -345 70t-247.5 181.5t-149.5 249.5t-50 278z M545 653q0 -55 15 -93t39 -59.5t52.5 -30.5t53.5 -9q49 0 87.5 19.5t66.5 48t46.5 64.5t28.5 66q6 16 14 41t16.5 52.5t14.5 56.5t6 51q-2 78 -47 125t-109 47q-53 0 -104 -30.5t-91 -83t-64.5 -120t-24.5 -143.5v-2z" />
<glyph unicode="A" horiz-adv-x="1486" d="M16 0l623 1516h219l612 -1516h-262l-143 358h-647l-139 -358h-263zM483 553h516l-260 682z" />
<glyph unicode="B" horiz-adv-x="1226" d="M145 0v1516h453q109 0 187.5 -20.5t134.5 -61.5q84 -51 118.5 -133t34.5 -175q0 -121 -55 -197.5t-137 -119.5q98 -31 153.5 -84t83 -109.5t33.5 -106.5t6 -75q-2 -113 -49 -203t-135 -143q-41 -29 -79 -45t-83 -26.5t-98.5 -13.5t-122.5 -3h-445zM387 213h244q37 0 80 4 t82 21q55 25 93 74.5t40 136.5q0 78 -37 131t-96 77q-45 18 -86 22.5t-97 4.5h-223v-471zM387 887h199q41 0 81 4t72 20q57 31 80 79t23 108q0 70 -31 114.5t-72 63.5q-29 14 -65.5 20.5t-93.5 6.5h-193v-416z" />
<glyph unicode="C" horiz-adv-x="1660" d="M80 760q0 156 57.5 298t161.5 249.5t249.5 172t321.5 64.5q154 0 275 -49t212 -123t149.5 -161t86.5 -164h-256q-18 37 -56 86t-96.5 93t-137 74.5t-179.5 30.5q-121 0 -221 -46t-173 -125t-112.5 -182.5t-39.5 -217.5q0 -119 40.5 -223.5t113.5 -183.5t173.5 -124 t220.5 -45q111 0 193 36t138 82t90 92t46 67h254q-35 -104 -103.5 -193.5t-162.5 -155t-209 -103.5t-244 -38q-172 0 -316 62.5t-250.5 170t-166 251t-59.5 305.5z" />
<glyph unicode="D" horiz-adv-x="1482" d="M145 0v1516h469q76 0 159 -8.5t165 -34t159 -74.5t140 -129q86 -104 126 -232.5t40 -277.5q0 -166 -46 -305.5t-140.5 -240.5t-241 -157.5t-344.5 -56.5h-486zM387 213h256q133 0 231.5 40t163 112.5t95 172t30.5 218.5q0 111 -29.5 210t-93.5 177q-59 70 -153 115 t-242 45h-258v-1090z" />
<glyph unicode="E" horiz-adv-x="1099" d="M145 0v1516h848v-213h-606v-431h598v-210h-598v-449h606v-213h-848z" />
<glyph unicode="F" horiz-adv-x="1009" d="M145 0v1516h791v-213h-549v-443h541v-211h-541v-649h-242z" />
<glyph unicode="G" horiz-adv-x="1748" d="M78 762q0 170 62.5 313.5t171 247.5t254 162.5t311.5 58.5q123 0 236.5 -34.5t208.5 -96t168 -145.5t114 -183h-273q-59 86 -139 144q-66 47 -145.5 74.5t-174.5 27.5q-109 0 -208 -40t-176.5 -113.5t-124 -179t-46.5 -236.5q0 -137 47.5 -244.5t124 -181.5t177 -113 t206.5 -39q104 0 193.5 30t157.5 83q70 53 115.5 122.5t62.5 147.5h-653v197h933q0 -72 -14 -163t-53 -177q-53 -113 -134 -198t-180.5 -141t-209 -85t-216.5 -29q-168 0 -313 61.5t-252.5 168t-169 251t-61.5 310.5z" />
<glyph unicode="H" horiz-adv-x="1429" d="M145 0v1516h242v-639h653v639h242v-1516h-242v664h-653v-664h-242z" />
<glyph unicode="I" horiz-adv-x="534" d="M145 0v1516h242v-1516h-242z" />
<glyph unicode="J" horiz-adv-x="1069" d="M12 399h258q0 -10 1 -18t3 -19q25 -96 85.5 -137t115.5 -41q78 2 123 38t61 81q14 41 18.5 83t4.5 87v1043h240v-990q0 -104 -8.5 -178t-34.5 -133q-23 -45 -59 -88t-81 -72q-63 -43 -135 -63.5t-141 -20.5q-33 0 -97.5 11.5t-133 47.5t-128 102.5t-81.5 178.5 q-4 20 -6.5 43t-4.5 45z" />
<glyph unicode="K" horiz-adv-x="1290" d="M182 0v1516h242v-717l555 717h256l-590 -756l649 -760h-297l-573 698v-698h-242z" />
<glyph unicode="L" horiz-adv-x="937" d="M152 0v1516h241v-1303h535v-213h-776z" />
<glyph unicode="M" horiz-adv-x="1890" d="M145 0v1516h332l471 -1174l465 1174h330v-1516h-223l6 1278l-502 -1278h-158l-501 1278l6 -1278h-226z" />
<glyph unicode="N" horiz-adv-x="1536" d="M145 0v1516h228l786 -1154l-4 1154h234v-1516h-222l-792 1155l4 -1155h-234z" />
<glyph unicode="O" horiz-adv-x="1742" d="M78 748v2q0 178 63.5 324.5t173 251t253 161.5t302.5 57q170 0 315.5 -61.5t252 -168t167 -249.5t60.5 -307t-60.5 -307.5t-167 -250t-253 -168t-316.5 -61.5q-172 0 -316 62.5t-249.5 169t-165 247t-59.5 298.5zM317 758q0 -119 42 -223.5t116 -182.5t176.5 -123 t222.5 -45q123 0 224.5 48.5t174.5 127t111.5 182t38.5 214.5t-40 215t-111.5 184t-173 128t-226.5 48q-123 0 -225 -46t-176 -125t-114 -182.5t-40 -217.5v-2z" />
<glyph unicode="P" horiz-adv-x="1187" d="M137 0v1516h432q88 0 153.5 -6.5t115 -18.5t86.5 -31.5t71 -46.5q80 -61 124 -161.5t44 -211.5t-43 -213t-114 -159q-39 -31 -79 -51.5t-88 -35t-108.5 -20.5t-138.5 -6h-213v-555h-242zM379 768h209q72 0 129 10t106 41q47 27 78 83t31 134t-32 133.5t-79 83.5 q-51 31 -108.5 40.5t-132.5 9.5h-201v-535z" />
<glyph unicode="Q" horiz-adv-x="1787" d="M90 754q0 158 58.5 301t164 251.5t251 173t319.5 64.5t320.5 -63.5t253 -170t165.5 -248.5t59 -298q0 -109 -20.5 -192t-50 -144t-61 -103t-54.5 -69q59 -41 121.5 -58.5t161.5 -25.5v-199q-29 2 -57.5 3t-57.5 6q-66 6 -117 18t-90 29.5t-68.5 37t-54.5 37.5 q-98 -63 -212.5 -98t-231.5 -35q-182 0 -329.5 66.5t-252 175.5t-161 250t-56.5 291zM346 756q4 -35 10 -62q47 16 116 33.5t165 17.5q102 0 194.5 -24.5t184.5 -81.5q33 -20 59.5 -39.5t58 -44.5t72.5 -59.5t101 -85.5q66 68 100.5 158.5t34.5 195.5q0 125 -44 229.5 t-121 180t-178.5 116.5t-213.5 41h-2q-104 0 -196.5 -35.5t-164 -100.5t-118 -155t-58.5 -198q-2 -26 -2 -47t2 -39zM391 498q43 -96 107.5 -156.5t133 -95.5t136.5 -48.5t119 -13.5h2q88 0 159.5 23.5t110.5 52.5q-16 18 -44 43t-55.5 48.5t-51 43t-31.5 25.5 q-86 63 -178 92t-187 29q-78 0 -129 -13.5t-92 -29.5z" />
<glyph unicode="R" horiz-adv-x="1247" d="M137 0v1516h428q178 0 279.5 -24t161.5 -65q94 -61 147 -170.5t53 -238.5q0 -80 -22.5 -155t-63.5 -134q-59 -82 -132 -115.5t-161 -50.5l357 -563h-256l-416 684h53q39 0 81 2t83 8t77 19.5t62 36.5q53 47 79 110.5t26 136.5q0 78 -35 146.5t-94 109.5 q-49 31 -112.5 40.5t-145.5 9.5h-207v-1303h-242z" />
<glyph unicode="S" horiz-adv-x="1122" d="M70 449h239q6 -86 36 -139.5t69 -83t80 -40t71 -10.5q51 0 96.5 18.5t80 51.5t55 77t20.5 95q0 63 -25.5 104t-70.5 71t-106.5 53.5t-135.5 49.5q-45 14 -110.5 41t-126 73t-103.5 118.5t-43 179.5q0 106 41 187t108.5 136.5t152.5 84t175 28.5q74 0 152 -21.5 t143.5 -70.5t110.5 -129t51 -197h-237q-6 31 -18.5 68t-37 69.5t-65.5 54t-107 21.5q-47 0 -88 -15t-72.5 -43t-50 -66.5t-18.5 -88.5q0 -55 21.5 -92t65.5 -66.5t110.5 -56t158.5 -59.5q70 -31 136.5 -65.5t116.5 -83t81 -115t31 -158.5t-31 -175t-92.5 -146.5 t-153.5 -100.5t-213 -37q-113 0 -204 34t-155.5 95.5t-100 149.5t-37.5 199z" />
<glyph unicode="T" horiz-adv-x="970" d="M16 1303v213h938v-213h-348v-1303h-241v1303h-349z" />
<glyph unicode="U" horiz-adv-x="1343" d="M143 569v947h242v-947q0 -72 7 -135t48 -129q35 -53 95.5 -87t138.5 -34t138 32t91 85q43 66 50.5 130.5t7.5 137.5v947h239v-947v-17q0 -142 -30 -250q-32 -114 -134 -198q-68 -61 -158 -97t-202 -36q-41 0 -89 6.5t-97.5 21.5t-95.5 41t-85 62q-55 49 -89 102.5 t-51 112t-21.5 121t-4.5 131.5z" />
<glyph unicode="V" horiz-adv-x="1427" d="M25 1516h249l439 -1221l440 1221h250l-572 -1516h-239z" />
<glyph unicode="W" horiz-adv-x="1923" d="M29 1516h245l299 -1186l297 1186h183l301 -1188l295 1188h245l-417 -1516h-224l-292 1149l-293 -1149h-230z" />
<glyph unicode="X" horiz-adv-x="1368" d="M20 0l525 791l-484 725h275l348 -547l346 547h273l-478 -730l523 -786h-275l-397 616l-387 -616h-269z" />
<glyph unicode="Y" horiz-adv-x="1239" d="M25 1516h262l334 -750l333 750h263l-476 -977v-539h-241v539z" />
<glyph unicode="Z" horiz-adv-x="1021" d="M25 1303v213h954v-189l-649 -1114h667v-213h-960v156l670 1147h-682z" />
<glyph unicode="[" horiz-adv-x="923" d="M236 -412v1928h542v-179h-336v-1568h336v-181h-542z" />
<glyph unicode="\" horiz-adv-x="1144" d="M143 1516h238l623 -1721h-240z" />
<glyph unicode="]" horiz-adv-x="923" d="M145 -231h336v1568h-336v179h545v-1928h-545v181z" />
<glyph unicode="^" horiz-adv-x="1228" d="M152 768l354 748h217l354 -748h-233l-232 557l-229 -557h-231z" />
<glyph unicode="_" horiz-adv-x="1024" d="M0 -154h1024v-102h-1024v102z" />
<glyph unicode="`" horiz-adv-x="1136" d="M258 1485l70 153l491 -272l-63 -131z" />
<glyph unicode="a" horiz-adv-x="1415" d="M76 557q0 127 44 235.5t120.5 187.5t181 123t225.5 44q82 0 150.5 -20.5t121 -54.5t88 -75t54.5 -79v196h213v-1114h-213v195q-59 -113 -170 -170.5t-244 -57.5q-135 0 -240.5 48t-179 130t-112.5 188.5t-39 223.5zM289 553q0 -61 23.5 -130t70.5 -126t119.5 -94 t175.5 -37q129 0 217 62.5t129 158.5q18 39 27.5 81t11.5 85v17q0 80 -33 149q-41 98 -131 163.5t-225 65.5q-88 0 -159 -31.5t-121 -86t-77.5 -126t-27.5 -149.5v-2z" />
<glyph unicode="b" horiz-adv-x="1400" d="M139 0v1516h213v-404v-176q78 111 189.5 160t220.5 51q109 0 210 -39t180 -114.5t127 -184.5t48 -248q0 -135 -45 -244.5t-122 -187.5t-182.5 -120t-223.5 -42q-143 0 -250 62.5t-160 163.5v-193h-205zM344 559q0 -80 27.5 -151.5t77 -125t119 -85t155.5 -31.5 q94 0 168 33.5t123 89t74.5 126t25.5 142.5v2q0 82 -29.5 152.5t-81 123t-122 83t-152.5 30.5q-86 0 -156.5 -30.5t-122 -84t-79 -124t-27.5 -150.5z" />
<glyph unicode="c" horiz-adv-x="1304" d="M76 557q0 123 45 230.5t123 187.5t185.5 126t232.5 46q100 0 192 -30t169 -86t132 -136t82 -180h-219q-43 113 -138.5 173t-209.5 60h-12q-80 0 -138 -26q-64 -28 -123 -82q-49 -49 -78.5 -123t-29.5 -160t29.5 -157.5t81 -124t121 -81t149.5 -28.5q70 0 127 20.5t100 52 t73.5 71.5t47.5 81h219q-25 -90 -77 -168t-125.5 -135t-166 -89t-196.5 -32q-137 0 -247 49.5t-187.5 130t-119.5 187t-42 223.5z" />
<glyph unicode="d" horiz-adv-x="1411" d="M76 559q0 129 44 237.5t120.5 186.5t180 121t222.5 43q86 0 154.5 -21.5t120 -53.5t86 -69.5t51.5 -70.5v196v388h213v-1516h-205v195q-23 -43 -58.5 -84t-87 -73t-118 -51.5t-152.5 -19.5q-131 0 -236.5 47t-180 128t-114.5 188.5t-40 228.5zM289 557q0 -78 26.5 -148.5 t76.5 -124t123 -86t165 -32.5q82 0 153.5 31.5t124.5 85.5q53 53 83 125q26 63 26 135v20q0 84 -29.5 153.5t-83.5 121.5q-53 53 -122.5 81.5t-151.5 28.5q-88 0 -161 -31.5t-124 -85t-78.5 -124t-27.5 -148.5v-2z" />
<glyph unicode="e" horiz-adv-x="1298" d="M61 555q0 119 44.5 226.5t123 189.5t186 129t234.5 47q121 0 226.5 -43t185.5 -121q98 -100 140 -226q31 -94 31 -198q0 -34 -3 -70h-953q4 -84 39 -147t89.5 -106t119 -64.5t127.5 -21.5q113 0 194 50t128 138h221q-41 -92 -97.5 -160.5t-127.5 -116.5 q-72 -47 -152 -70.5t-166 -23.5q-137 0 -245.5 50.5t-185.5 133t-118 188t-41 216.5zM281 655h737q-4 55 -33 110.5t-77 100.5t-114 73q-61 26 -134 26h-11q-82 0 -148.5 -27t-113.5 -71t-74.5 -99t-31.5 -113z" />
<glyph unicode="f" horiz-adv-x="595" d="M10 948v166h152v76q0 125 43 196.5t106.5 106.5t136 43t132.5 8v-168q-27 0 -63 -4t-67.5 -22.5t-53 -57.5t-21.5 -112v-66h205v-166h-205v-948h-213v948h-152z" />
<glyph unicode="g" horiz-adv-x="1402" d="M76 553q0 131 44 239.5t121.5 187.5t183 123t226.5 44q141 0 248 -64.5t154 -156.5v188h213v-985q0 -147 -35 -244.5t-96 -169.5q-78 -90 -201 -146t-268 -56q-119 0 -212.5 31.5t-163 84t-113.5 119t-64 135.5h245q37 -76 123 -129q51 -35 103.5 -47t89.5 -12 q70 0 137.5 25.5t121.5 74.5t87 121t33 166v115q-49 -94 -149.5 -162t-252.5 -68q-125 0 -230.5 45t-182 124t-119.5 185.5t-43 231.5zM289 557q0 -78 26.5 -149.5t76.5 -125t122 -85t160 -31.5q86 0 154.5 29.5t119.5 83.5q49 51 78 120.5t31 151.5q0 66 -21.5 136.5 t-68.5 127.5q-47 59 -119 95t-174 36q-80 0 -149.5 -28.5t-122 -79t-83 -122t-30.5 -157.5v-2z" />
<glyph unicode="h" horiz-adv-x="1302" d="M139 0v1516h213v-383v-175q25 49 64 85t87 59.5t102 34t110 10.5q131 0 217 -41t139 -115q53 -72 74.5 -169t21.5 -214v-608h-215v598q0 76 -14 139.5t-49 110.5q-37 47 -93.5 72.5t-140.5 25.5q-86 0 -143 -28.5t-92 -73.5t-51.5 -101.5t-16.5 -113.5v-629h-213z" />
<glyph unicode="i" horiz-adv-x="491" d="M139 0v1114h213v-1114h-213zM139 1290v226h213v-226h-213z" />
<glyph unicode="j" horiz-adv-x="563" d="M-6 -256h18t17 2q55 6 86.5 29.5t47 58.5t19.5 81t4 97v1102h213v-1096q0 -82 -9 -158.5t-45 -137t-104.5 -99.5t-187.5 -47q-14 -2 -28.5 -2h-30.5v170zM186 1288v228h213v-228h-213z" />
<glyph unicode="k" horiz-adv-x="1095" d="M145 0v1516h215v-842l437 440h258l-496 -489l510 -625h-248l-461 573v-573h-215z" />
<glyph unicode="l" horiz-adv-x="491" d="M139 0v1516h213v-1516h-213z" />
<glyph unicode="m" horiz-adv-x="1966" d="M139 0v1114h201v-158q18 35 50 70t76 61.5t97 43t115 16.5q78 0 152.5 -26.5t134.5 -92.5q23 -23 42 -57.5t29 -50.5q14 25 32.5 53t47.5 57q53 53 128 85t167 32q78 0 158 -24.5t141 -88.5q37 -37 60.5 -78t38 -90t19.5 -110.5t5 -141.5v-614h-213v606q0 70 -12.5 135.5 t-48.5 112.5q-29 43 -76 67.5t-123 24.5q-72 0 -128 -27.5t-87 -78.5q-35 -53 -43 -103.5t-8 -122.5v-614h-215v614v24q1 55 -7 98q-10 52 -38 100q-31 49 -82.5 78.5t-128.5 31.5h-9q-70 0 -120 -30q-54 -32 -82 -78q-31 -45 -45.5 -102.5t-14.5 -125.5v-610h-213z" />
<glyph unicode="n" horiz-adv-x="1302" d="M139 0v1114h201v-172q41 86 134 146q90 59 233 59h10q133 -2 220 -46t138 -115t71.5 -159t20.5 -174v-653h-215v604q0 76 -15 138.5t-50 108.5t-91.5 70.5t-138.5 24.5q-158 -2 -231.5 -91t-73.5 -234v-621h-213z" />
<glyph unicode="o" horiz-adv-x="1341" d="M76 557v2q0 111 40 217.5t116.5 188.5t186 132t251.5 50q141 0 250.5 -50t186.5 -133t117 -188.5t40 -218.5t-40 -218.5t-117 -187t-186.5 -132t-250.5 -50.5t-251 50.5t-186.5 132t-116.5 187t-40 218.5zM289 555q0 -84 29.5 -154.5t81 -122t121 -81t149.5 -29.5 t149.5 29.5t120.5 82t81 123t30 154.5t-30 154.5t-81 123t-120.5 82t-149.5 29.5t-149.5 -29.5t-121 -82t-81 -123t-29.5 -154.5v-2z" />
<glyph unicode="p" horiz-adv-x="1409" d="M139 -406v1520h203v-194q63 100 169.5 163.5t256.5 63.5q143 0 249.5 -54.5t176.5 -140.5t103.5 -191.5t33.5 -209.5q0 -119 -41 -224.5t-114.5 -185.5t-177 -127t-228.5 -47q-86 0 -155.5 21.5t-122 53.5t-87 70t-53.5 72v-184v-406h-213zM342 555q0 -84 28.5 -153.5 t82.5 -122.5q53 -53 123.5 -83t152.5 -30q84 0 155.5 30.5t123 84t80 124t28.5 152.5v2q0 68 -24.5 137.5t-72.5 126t-121 91t-171 34.5q-84 0 -153.5 -30.5t-122.5 -83.5q-51 -53 -80 -124t-29 -155z" />
<glyph unicode="q" horiz-adv-x="1406" d="M76 545q0 131 43 241.5t118.5 190.5t180 125t229.5 45q84 0 151.5 -20.5t119 -52.5t87 -71.5t58.5 -78.5v190h205v-1520h-213v406v188q-18 -35 -53 -73.5t-86.5 -71.5t-122 -54.5t-158.5 -21.5q-125 0 -228.5 46t-177 125t-113.5 184.5t-40 222.5zM289 551 q0 -76 27.5 -145.5t78.5 -123t123 -85t160 -31.5q82 0 151.5 29.5t122.5 83.5q53 53 83 123.5t30 152.5v19q0 72 -25 134q-30 72 -84 126q-53 53 -124.5 83.5t-153.5 30.5q-96 0 -169 -34.5t-121 -91t-73.5 -127t-25.5 -142.5v-2z" />
<glyph unicode="r" horiz-adv-x="688" d="M139 0v1114h201v-164q47 98 132 146.5t200 50.5v-213h-15q-305 0 -305 -332v-602h-213z" />
<glyph unicode="s" horiz-adv-x="954" d="M72 322h211q2 -51 22.5 -85t49 -55.5t61.5 -31t63 -9.5q78 0 130.5 47.5t52.5 118.5q0 41 -17.5 71t-51.5 53.5t-88 44t-128 44.5q-59 18 -109.5 42t-88.5 57.5t-60.5 79.5t-22.5 110q0 80 30 142.5t81 105.5t119.5 66.5t144.5 23.5q57 0 119.5 -15.5t117 -53.5 t91.5 -100.5t43 -154.5h-211q0 66 -40 109q-38 41 -115 41h-7q-78 0 -120 -44q-40 -42 -40 -95v-5q4 -66 58.5 -101.5t144.5 -59.5q63 -18 126.5 -39t116 -56.5t85 -93t34.5 -147.5v-10q0 -76 -28 -138q-30 -66 -84.5 -115t-128.5 -75.5t-156 -26.5q-66 0 -136.5 19.5 t-128.5 62.5t-97 109.5t-43 163.5z" />
<glyph unicode="t" horiz-adv-x="667" d="M18 948v166h201v402h213v-402h215v-166h-215v-948h-213v948h-201z" />
<glyph unicode="u" horiz-adv-x="1304" d="M137 461v653h213v-604q0 -76 15.5 -138.5t51.5 -108.5t92 -71.5t138 -25.5q158 2 231.5 92t73.5 234v622h213v-1114h-200v172q-41 -86 -135 -146q-91 -59 -233 -59h-9q-135 0 -222 45t-137.5 116t-71 159t-20.5 174z" />
<glyph unicode="v" horiz-adv-x="1110" d="M23 1114h223l309 -848l309 848h223l-425 -1114h-213z" />
<glyph unicode="w" horiz-adv-x="1656" d="M16 1114h224l262 -842l237 777h179l241 -777l258 842h221l-370 -1114h-203l-240 780l-233 -780h-203z" />
<glyph unicode="x" horiz-adv-x="1085" d="M10 0l402 580l-375 534h258l248 -383l245 383h254l-372 -534l403 -580h-260l-270 414l-273 -414h-260z" />
<glyph unicode="y" horiz-adv-x="1089" d="M10 1114h230l307 -815l311 815h229l-608 -1520h-227l184 439z" />
<glyph unicode="z" horiz-adv-x="874" d="M29 0v152l565 796h-549v166h784v-168l-546 -780h563v-166h-817z" />
<glyph unicode="{" horiz-adv-x="1015" d="M223 371v221q27 4 59.5 20.5t60.5 47t46.5 76.5t18.5 108v416q0 139 69.5 203.5t177.5 64.5h207v-166h-112q-41 0 -66 -11.5t-37 -35t-16 -57t-4 -76.5v-406q0 -63 -23.5 -113.5t-55.5 -87t-64.5 -60t-53.5 -36.5q33 -8 67.5 -29.5t63.5 -55.5t47.5 -81t18.5 -106v-408 q0 -92 20.5 -136t102.5 -44h112v-168h-207q-111 0 -179 65.5t-68 207.5v407q0 55 -16.5 95t-43 69t-59.5 46t-66 30z" />
<glyph unicode="|" horiz-adv-x="1136" d="M453 -512v2048h233v-2048h-233z" />
<glyph unicode="}" horiz-adv-x="1015" d="M154 -381h112q82 0 102.5 44t20.5 136v408q0 59 24.5 107t56.5 83t64.5 56.5t51.5 29.5q-35 12 -71 36t-63.5 59.5t-45 85t-17.5 112.5v406q0 43 -4 76.5t-16.5 57t-37 35t-65.5 11.5h-112v166h206q109 0 178.5 -64.5t69.5 -203.5v-416q0 -61 18.5 -107.5t46 -77 t60.5 -47t60 -20.5v-221q-33 -12 -66 -29.5t-59.5 -46.5t-43 -69t-16.5 -95v-407q0 -141 -68.5 -207t-179.5 -66h-206v168z" />
<glyph unicode="~" horiz-adv-x="1228" d="M145 532q39 72 101.5 122.5t154.5 45.5q55 0 114.5 -21.5t119.5 -47.5q59 -27 113.5 -50.5t99.5 -23.5q59 0 100 43t76 92l59 -196q-45 -66 -101 -115t-134 -49q-57 0 -111.5 20.5t-107.5 48.5q-53 29 -112.5 51.5t-121.5 22.5q-61 2 -107 -33.5t-85 -101.5z" />
<glyph unicode="&#xa1;" horiz-adv-x="614" d="M197 -401v1087h221v-1087h-221zM197 848v266h221v-266h-221z" />
<glyph unicode="&#xa2;" d="M133 760q0 68 21.5 143.5t68.5 142t122 119t181 74.5v205h176v-203q141 -33 238.5 -123t134.5 -213h-225q-23 39 -50.5 64.5t-58 40t-62.5 20.5t-58 6q-59 0 -109.5 -21.5t-87.5 -58t-57.5 -86t-20.5 -104.5q0 -53 18.5 -103.5t54.5 -89t86 -61.5t116 -23q49 0 85.5 12.5 t64.5 31t46.5 40t28.5 37.5h231q-25 -66 -63.5 -120t-87.5 -96t-104.5 -68.5t-112.5 -36.5v-217h-183v217q-111 25 -186.5 78t-121.5 119.5t-65.5 139t-19.5 134.5z" />
<glyph unicode="&#xa3;" d="M20 657v174h134q-29 41 -48.5 96.5t-19.5 123.5q0 94 36 183t103.5 157.5t163.5 110.5t215 42q94 0 181 -29.5t156 -87t115 -140.5t58 -189h-225q-10 43 -32.5 85t-56.5 74.5t-82 53t-110 20.5q-63 0 -114.5 -22.5t-88 -61.5t-57 -91t-22.5 -112q2 -63 23.5 -114 t62.5 -99h426v-174h-312q20 -18 44 -42.5t43.5 -57.5t32.5 -72t13 -84q0 -41 -19 -94t-67 -114h132q74 0 117.5 11t78.5 40q84 78 84 182q0 27 -4 45t-10 43h211q6 -23 11 -47.5t5 -71.5q0 -76 -30.5 -146.5t-75.5 -119.5q-61 -61 -140.5 -95t-220.5 -34h-649v193h192 q25 6 50.5 18t47 34.5t36 56.5t14.5 83q0 86 -46 151.5t-108 120.5h-248z" />
<glyph unicode="&#xa4;" d="M35 1155l112 113l170 -170q129 94 287 94q78 0 150.5 -23.5t132.5 -68.5l170 166l110 -111l-166 -166q45 -61 71 -134t26 -157q0 -78 -24.5 -149.5t-69.5 -130.5l165 -166l-110 -113l-162 164q-66 -47 -139.5 -71.5t-153.5 -24.5q-82 0 -155.5 25.5t-137.5 70.5 l-164 -162l-110 109l168 168q-47 61 -71.5 132t-24.5 148q0 82 25.5 156t72.5 133zM311 698q0 -59 23.5 -111t63.5 -92t93.5 -63.5t112.5 -23.5t111.5 22.5t92.5 62t63.5 93t23.5 114.5t-22.5 114.5t-62.5 93.5t-93 62.5t-113 22.5q-59 0 -112.5 -22.5t-93.5 -62.5 t-63.5 -93t-23.5 -115v-2z" />
<glyph unicode="&#xa5;" d="M31 1516h256l317 -590l324 590h252l-320 -549h283v-181h-381l-41 -79v-109h422v-180h-422v-418h-238v418h-417v180h417v107l-43 81h-372v181h280z" />
<glyph unicode="&#xa6;" horiz-adv-x="1136" d="M453 -358v716h233v-716h-233zM453 666v716h233v-716h-233z" />
<glyph unicode="&#xa7;" horiz-adv-x="1284" d="M100 618q0 27 7.5 65t29 81t60.5 89t104 87q-29 39 -53.5 93t-24.5 132q0 96 37 167t98.5 118t139 70.5t159.5 23.5q102 0 183.5 -30.5t137.5 -83t87 -123t33 -150.5h-211q-10 61 -34 98t-56.5 57.5t-71.5 28t-78 7.5q-41 0 -80 -11.5t-69.5 -34t-49 -57.5t-18.5 -82 q0 -41 16.5 -69.5t39 -50t51 -36t53.5 -26.5l342 -158q31 -14 74 -37.5t82.5 -61.5t67.5 -94.5t28 -135.5q0 -111 -55.5 -189t-129.5 -133q121 -111 121 -274q0 -80 -30.5 -154t-89 -130t-145.5 -90t-200 -34q-78 0 -167 22.5t-164.5 77t-127 145.5t-53.5 226h211 q4 -78 30 -130t65.5 -84t92 -46t109.5 -14q129 0 192.5 61.5t67.5 147.5q-4 72 -54 118.5t-142 87.5l-371 172q-31 14 -72 37t-79.5 62t-65.5 98t-27 147zM297 647q0 -72 40 -115t91 -67l434 -199q45 23 86 74t43 121v2q0 39 -15 68.5t-40 51t-55.5 39t-63.5 31.5l-391 183 q-70 -35 -99.5 -86.5t-29.5 -102.5z" />
<glyph unicode="&#xa8;" horiz-adv-x="1136" d="M256 1286v277h207v-277h-207zM672 1286v277h207v-277h-207z" />
<glyph unicode="&#xa9;" horiz-adv-x="1638" d="M37 758q0 160 59.5 302t165 249.5t248.5 170t313 62.5h2q164 0 305.5 -62.5t246 -169t165 -249.5t60.5 -303q0 -164 -61.5 -307.5t-168 -250t-248 -167t-303.5 -60.5q-164 0 -307 60.5t-248.5 167t-167 249t-61.5 308.5zM156 758q0 -141 52 -264t142 -214.5t211 -143.5 t260 -52q137 0 257 52t210 142.5t142.5 214t52.5 265.5q0 137 -50.5 260t-138.5 215t-209.5 145.5t-263.5 53.5h-2q-143 0 -264 -53.5t-210 -145.5t-139 -215t-50 -260zM391 760q0 96 30 181t87 147.5t138 99.5t185 37q84 0 154 -27t121 -71t81 -101t36 -119h-144 q-12 57 -39.5 94t-61.5 58.5t-73 30t-74 8.5q-72 0 -126 -27t-90.5 -73t-56 -107.5t-19.5 -130.5q0 -80 22.5 -142.5t62.5 -105.5t93 -64.5t114 -21.5q14 0 52.5 5t79.5 29.5t77.5 74t49.5 139.5h145q-6 -88 -41 -158t-89 -118t-126 -73.5t-154 -25.5q-92 0 -171 30.5 t-137 90t-92 145.5t-34 195z" />
<glyph unicode="&#xaa;" horiz-adv-x="837" d="M55 1210q0 74 25.5 135.5t71 105.5t104.5 68.5t125 24.5q154 0 223 -131v111h137v-629h-137v111q-35 -72 -96.5 -100.5t-128.5 -28.5q-72 0 -131.5 26.5t-102.5 72.5t-66.5 106.5t-23.5 127.5zM193 1204q0 -31 12 -65.5t38.5 -63t64.5 -48t91 -19.5q68 0 115 31.5 t70 78.5q20 41 20 92q0 47 -16 86q-23 51 -73 84t-118 33q-86 0 -145 -58.5t-59 -148.5v-2z" />
<glyph unicode="&#xab;" horiz-adv-x="798" d="M70 573l215 385h164l-216 -385l216 -380h-164zM377 573l215 385h164l-215 -385l215 -380h-164z" />
<glyph unicode="&#xac;" horiz-adv-x="1228" d="M98 629v205h1032v-584h-206v379h-826z" />
<glyph unicode="&#xad;" horiz-adv-x="561" d="M0 475v211h561v-211h-561z" />
<glyph unicode="&#xae;" horiz-adv-x="1638" d="M37 758q0 160 59.5 302t165 249.5t248.5 170t313 62.5h2q164 0 305.5 -62.5t246 -169t165 -249.5t60.5 -303q0 -164 -61.5 -307.5t-168 -250t-248 -167t-303.5 -60.5q-164 0 -307 60.5t-248.5 167t-167 249t-61.5 308.5zM156 758q0 -141 52 -264t142 -214.5t211 -143.5 t260 -52q137 0 257 52t210 142.5t142.5 214t52.5 265.5q0 137 -50.5 259t-138.5 214t-209.5 146.5t-263.5 54.5h-2q-141 0 -263 -53.5t-211 -145.5t-139 -215t-50 -260zM483 315v889h373q43 0 98.5 -9t104.5 -35.5t82 -75t33 -126.5q0 -61 -33 -119.5t-125 -95.5 q70 -23 102.5 -69.5t38.5 -134.5q4 -61 6 -98.5t5 -60t6.5 -36.5t9.5 -29h-142q-12 20 -17 80t-9 127q-4 31 -10.5 60.5t-27 53t-61 37t-110.5 13.5h-178v-371h-146zM629 788h186q20 0 56 3.5t71 18.5t60.5 47t25.5 93q0 55 -22.5 85t-54 43.5t-64.5 16.5t-53 3h-205v-310z " />
<glyph unicode="&#xaf;" horiz-adv-x="1136" d="M201 1335v170h733v-170h-733z" />
<glyph unicode="&#xb0;" horiz-adv-x="819" d="M117 1163q0 61 22.5 114.5t62.5 93.5t93 62.5t115 22.5q61 0 114.5 -22.5t93 -62.5t62 -93t22.5 -115v-2q0 -61 -22.5 -113.5t-62 -92.5t-93 -62.5t-114.5 -22.5t-114.5 22.5t-93.5 62.5t-62.5 93.5t-22.5 114.5zM238 1161q0 -35 13 -66.5t36.5 -55t54.5 -38t68 -14.5 q72 0 122 52.5t50 123.5q0 35 -13.5 67t-37 55.5t-54.5 37.5t-67 14q-37 0 -68 -14t-54.5 -37.5t-36.5 -55.5t-13 -67v-2z" />
<glyph unicode="&#xb1;" horiz-adv-x="1228" d="M98 -92v207h1032v-207h-1032zM98 551v207h414v336h205v-336h413v-207h-413v-328h-205v328h-414z" />
<glyph unicode="&#xb2;" horiz-adv-x="782" d="M72 606v131q82 76 162.5 151t160.5 152q66 59 94.5 105.5t28.5 97.5q0 59 -30.5 102.5t-104.5 43.5q-76 0 -110.5 -56.5t-34.5 -132.5h-164q0 55 12 108.5t47 100.5q53 74 123 99.5t135 25.5q147 0 229 -71.5t82 -202.5q0 -80 -32.5 -139.5t-98.5 -125.5 q-66 -61 -128 -122.5t-126 -122.5h390v-144h-635z" />
<glyph unicode="&#xb3;" horiz-adv-x="782" d="M55 885h172q4 -74 48 -113t110 -39q74 0 115 43t41 109q0 23 -9.5 48t-29 46.5t-50 36t-75.5 14.5h-88v125h53q72 0 112 38t40 83q0 41 -27 75.5t-82 37.5q-61 0 -87 -36t-30 -79h-168q2 78 34 128t76 79.5t93 41t86 11.5q59 0 108.5 -18.5t85 -51t56 -74.5t20.5 -92 q0 -55 -30.5 -106t-85.5 -82q78 -29 125 -92.5t47 -140.5q0 -61 -25.5 -114.5t-71 -91.5t-105.5 -60.5t-130 -22.5q-78 0 -153.5 31.5t-118.5 91.5q-31 41 -42.5 87t-13.5 87z" />
<glyph unicode="&#xb4;" horiz-adv-x="1136" d="M317 1374l490 275l72 -156l-496 -250z" />
<glyph unicode="&#xb5;" horiz-adv-x="1230" d="M131 -381v1495h213v-586q0 -66 9 -135t48 -125q41 -57 97.5 -79.5t113.5 -22.5q72 0 123 28.5t86 81.5q37 53 54.5 129t17.5 168v541h213v-1114h-205v186q-10 -25 -29.5 -59.5t-52.5 -68t-83 -57.5t-122 -24q-61 0 -106 14.5t-78 36t-53.5 47t-32.5 46.5v-139v-363h-213z " />
<glyph unicode="&#xb6;" horiz-adv-x="1306" d="M4 1110q0 129 50 208t125 123t163 59.5t164 15.5h631v-160h-113v-1587h-172v1585h-229v-1585h-172v948q-94 0 -176 23.5t-141.5 72.5t-94.5 123t-35 174z" />
<glyph unicode="&#xb7;" horiz-adv-x="608" d="M195 387v266h223v-266h-223z" />
<glyph unicode="&#xb8;" horiz-adv-x="1136" d="M377 -299h110q10 -35 33 -49t47 -14q35 0 58.5 23.5t23.5 64.5q0 37 -23.5 58t-56.5 21q-41 0 -67 -38l-94 43l90 190h120l-55 -113q12 6 35 7q66 0 114 -45.5t48 -122.5q0 -35 -11.5 -68t-36 -59.5t-60.5 -43t-85 -16.5q-12 0 -39.5 4t-58.5 19.5t-57.5 48.5t-34.5 90z " />
<glyph unicode="&#xb9;" horiz-adv-x="782" d="M145 1372v144h340v-910h-163v766h-177z" />
<glyph unicode="&#xba;" horiz-adv-x="837" d="M82 1206v2q0 63 22.5 124t65.5 108t105.5 75.5t142.5 28.5t143.5 -28.5t106.5 -75.5t65.5 -107.5t22.5 -122.5q0 -68 -24.5 -128t-70 -106t-107.5 -72.5t-136 -26.5q-78 0 -139.5 28.5t-105.5 74.5t-67.5 105.5t-23.5 120.5zM219 1206q0 -41 15.5 -76.5t43 -63.5 t63.5 -43t77 -15q39 0 74.5 15t63.5 42t44 63.5t16 81.5q0 86 -56 144.5t-140 58.5q-80 0 -140.5 -56.5t-60.5 -148.5v-2z" />
<glyph unicode="&#xbb;" horiz-adv-x="798" d="M43 193l215 380l-215 383h164l215 -383l-215 -380h-164zM350 193l217 380l-217 383h164l215 -383l-215 -380h-164z" />
<glyph unicode="&#xbc;" horiz-adv-x="1658" d="M94 1372v144h340v-910h-164v766h-176zM344 0l651 1516h183l-654 -1516h-180zM858 166v115l447 628h163v-614h97v-129h-97v-166h-165v166h-445zM1038 295h267v403z" />
<glyph unicode="&#xbd;" horiz-adv-x="1728" d="M94 1372v144h340v-910h-164v766h-176zM344 0l651 1516h183l-654 -1516h-180zM999 0v131q82 76 163 150.5t161 152.5q66 59 94.5 105.5t28.5 97.5q0 59 -31 102t-104 43q-76 0 -111 -56t-35 -132h-164q0 53 10.5 103.5t43.5 97.5q53 78 124.5 105.5t139.5 27.5 q147 0 229 -72t82 -203q0 -80 -32.5 -139t-98.5 -125q-66 -61 -128 -122.5t-126 -123.5h389v-143h-635z" />
<glyph unicode="&#xbe;" horiz-adv-x="1869" d="M84 885h170q4 -74 49 -113t111 -39q74 0 114.5 43t40.5 109q0 23 -9 48t-28.5 46.5t-51 36t-77.5 14.5h-86v125h52q72 0 111.5 38t39.5 83q0 41 -26.5 75.5t-79.5 37.5q-63 0 -89 -36t-28 -79h-168q2 78 33 128t76 79.5t94 41t86 11.5q57 0 107 -18.5t85 -51t55.5 -74.5 t20.5 -92q0 -55 -29.5 -106t-87.5 -82q78 -29 125 -92.5t47 -140.5q0 -61 -25.5 -114.5t-70.5 -91.5t-104.5 -60.5t-128.5 -22.5q-80 0 -156 31.5t-121 95.5q-29 41 -39 85t-12 85zM571 0l652 1516h182l-653 -1516h-181zM1079 166v115l447 628h164v-614h96v-129h-96v-166 h-166v166h-445zM1253 295h273v410z" />
<glyph unicode="&#xbf;" horiz-adv-x="1161" d="M111 2q0 68 20.5 123t54 103t75.5 90t85 81q53 51 84 93.5t46.5 77t20.5 65.5t5 59h225q-2 -53 -11 -100t-33 -93t-61.5 -95.5t-95.5 -104.5q-78 -78 -124 -138.5t-48 -137.5q0 -98 61.5 -166t170.5 -68q96 0 162.5 58.5t82.5 162.5q2 12 3.5 25.5t1.5 25.5h233v-45 q-6 -109 -51 -192.5t-112.5 -141t-153.5 -86t-177 -28.5q-104 0 -190 36t-146.5 95t-94 138t-33.5 163zM504 848v266h223v-266h-223z" />
<glyph unicode="&#xc0;" horiz-adv-x="1486" d="M16 0l623 1516h219l612 -1516h-262l-143 358h-647l-139 -358h-263zM428 1823l72 153l491 -272l-65 -131zM483 553h516l-260 682z" />
<glyph unicode="&#xc1;" horiz-adv-x="1486" d="M16 0l623 1516h219l612 -1516h-262l-143 358h-647l-139 -358h-263zM483 553h516l-260 682zM498 1714l489 273l72 -156l-496 -250z" />
<glyph unicode="&#xc2;" horiz-adv-x="1486" d="M16 0l623 1516h219l612 -1516h-262l-143 358h-647l-139 -358h-263zM319 1620l353 295h149l346 -295h-221l-203 152l-200 -152h-224zM483 553h516l-260 682z" />
<glyph unicode="&#xc3;" horiz-adv-x="1486" d="M16 0l623 1516h219l612 -1516h-262l-143 358h-647l-139 -358h-263zM348 1817q39 33 95.5 54t115.5 21q47 0 93 -10t87 -20q41 -14 80 -22.5t84 -8.5q98 0 158 53l80 -141q-96 -80 -215 -80q-39 0 -86 11.5t-95 21.5q-45 14 -86 22t-75 8q-49 0 -87 -15t-69 -40zM483 553 h516l-260 682z" />
<glyph unicode="&#xc4;" horiz-adv-x="1486" d="M16 0l623 1516h219l612 -1516h-262l-143 358h-647l-139 -358h-263zM432 1624v277h207v-277h-207zM483 553h516l-260 682zM848 1624v277h207v-277h-207z" />
<glyph unicode="&#xc5;" horiz-adv-x="1486" d="M16 0l623 1516h219l612 -1516h-262l-143 358h-647l-139 -358h-263zM483 553h516l-260 682zM518 1788q0 47 17.5 88t48 71.5t71.5 48t88 17.5h2q45 0 86 -17.5t72 -48t49.5 -71.5t18.5 -88t-18.5 -88t-49.5 -72t-71.5 -48t-88.5 -17q-47 0 -88 17t-71.5 48t-48 72 t-17.5 88zM635 1790q0 -45 31.5 -76t76.5 -31t77 31t32 76t-30.5 76.5t-78.5 31.5h-2q-45 0 -75.5 -32.5t-30.5 -75.5z" />
<glyph unicode="&#xc6;" horiz-adv-x="1968" d="M-18 0l1050 1516h811v-213h-547v-431h539v-210h-539v-449h547v-213h-782v383h-531l-260 -383h-288zM637 571h424v625z" />
<glyph unicode="&#xc7;" horiz-adv-x="1660" d="M80 760q0 156 57.5 298t161.5 249.5t249.5 172t321.5 64.5q154 0 275 -49t212 -123t149.5 -161t86.5 -164h-256q-18 37 -56 86t-96.5 93t-137 74.5t-179.5 30.5q-121 0 -221 -46t-173 -125t-112.5 -182.5t-39.5 -217.5q0 -119 40.5 -223.5t113.5 -183.5t173.5 -124 t220.5 -45q111 0 193 36t138 82t90 92t46 67h254q-35 -100 -101.5 -188.5t-157.5 -154t-203.5 -104.5t-241.5 -41l-43 -86q14 6 37 7q61 0 112 -45.5t51 -122.5q0 -35 -12 -68t-35.5 -59.5t-60.5 -43t-86 -16.5q-12 0 -40 4t-58.5 19.5t-57 48.5t-35.5 90h111 q10 -35 32.5 -49t47.5 -14q35 0 58.5 23.5t25.5 64.5q-2 37 -25.5 58t-56.5 21q-41 0 -68 -38l-94 43l82 170q-152 18 -278.5 85.5t-219 172t-143.5 238.5t-51 284z" />
<glyph unicode="&#xc8;" horiz-adv-x="1099" d="M145 0v1516h848v-213h-606v-431h598v-210h-598v-449h606v-213h-848zM240 1849l69 154l492 -270l-64 -131z" />
<glyph unicode="&#xc9;" horiz-adv-x="1099" d="M145 0v1516h848v-213h-606v-431h598v-210h-598v-449h606v-213h-848zM299 1741l489 272l72 -153l-495 -250z" />
<glyph unicode="&#xca;" horiz-adv-x="1099" d="M125 1647l354 295h148l348 -295h-223l-201 151l-203 -151h-223zM145 0v1516h848v-213h-606v-431h598v-210h-598v-449h606v-213h-848z" />
<glyph unicode="&#xcb;" horiz-adv-x="1099" d="M145 0v1516h848v-213h-606v-431h598v-210h-598v-449h606v-213h-848zM238 1651v278h206v-278h-206zM653 1651v278h207v-278h-207z" />
<glyph unicode="&#xcc;" horiz-adv-x="534" d="M-90 1845l72 154l489 -273l-63 -131zM145 0v1516h242v-1516h-242z" />
<glyph unicode="&#xcd;" horiz-adv-x="534" d="M63 1737l490 272l72 -156l-496 -249zM145 0v1516h242v-1516h-242z" />
<glyph unicode="&#xce;" horiz-adv-x="534" d="M-158 1638l355 295h147l348 -295h-223l-201 152l-202 -152h-224zM145 0v1516h242v-1516h-242z" />
<glyph unicode="&#xcf;" horiz-adv-x="534" d="M-45 1647v276h207v-276h-207zM145 0v1516h242v-1516h-242zM371 1647v276h207v-276h-207z" />
<glyph unicode="&#xd0;" horiz-adv-x="1482" d="M0 664v213h145v639h476q76 0 156.5 -8.5t161.5 -34t156.5 -74.5t141.5 -129q86 -104 126 -232.5t40 -277.5q0 -166 -48 -305.5t-142.5 -240.5t-234.5 -157.5t-325 -56.5h-508v664h-145zM387 213h256q133 0 231.5 40t163 112.5t95 172t30.5 218.5q0 111 -29.5 210 t-93.5 177q-59 70 -153 115t-242 45h-258v-426h352v-213h-352v-451z" />
<glyph unicode="&#xd1;" horiz-adv-x="1536" d="M145 0v1516h228l786 -1154l-4 1154h234v-1516h-222l-792 1155l4 -1155h-234zM371 1812q39 31 96 53.5t117 22.5q47 0 92 -10t86 -23q41 -12 80 -20t86 -8q98 0 155 53l82 -143q-96 -78 -215 -78q-39 0 -87 10t-93 23q-45 14 -86 22t-76 8q-49 0 -87 -15t-68 -42z" />
<glyph unicode="&#xd2;" horiz-adv-x="1742" d="M78 748v2q0 178 63.5 324.5t173 251t253 161.5t302.5 57q170 0 315.5 -61.5t252 -168t167 -249.5t60.5 -307t-60.5 -307.5t-167 -250t-253 -168t-316.5 -61.5q-172 0 -316 62.5t-249.5 169t-165 247t-59.5 298.5zM317 758q0 -119 42 -223.5t116 -182.5t176.5 -123 t222.5 -45q123 0 224.5 48.5t174.5 127t111.5 182t38.5 214.5t-40 215t-111.5 184t-173 128t-226.5 48q-123 0 -225 -46t-176 -125t-114 -182.5t-40 -217.5v-2zM561 1849l70 154l491 -270l-63 -131z" />
<glyph unicode="&#xd3;" horiz-adv-x="1742" d="M78 748v2q0 178 63.5 324.5t173 251t253 161.5t302.5 57q170 0 315.5 -61.5t252 -168t167 -249.5t60.5 -307t-60.5 -307.5t-167 -250t-253 -168t-316.5 -61.5q-172 0 -316 62.5t-249.5 169t-165 247t-59.5 298.5zM317 758q0 -119 42 -223.5t116 -182.5t176.5 -123 t222.5 -45q123 0 224.5 48.5t174.5 127t111.5 182t38.5 214.5t-40 215t-111.5 184t-173 128t-226.5 48q-123 0 -225 -46t-176 -125t-114 -182.5t-40 -217.5v-2zM621 1741l489 272l72 -153l-496 -250z" />
<glyph unicode="&#xd4;" horiz-adv-x="1742" d="M78 748v2q0 178 63.5 324.5t173 251t253 161.5t302.5 57q170 0 315.5 -61.5t252 -168t167 -249.5t60.5 -307t-60.5 -307.5t-167 -250t-253 -168t-316.5 -61.5q-172 0 -316 62.5t-249.5 169t-165 247t-59.5 298.5zM317 758q0 -119 42 -223.5t116 -182.5t176.5 -123 t222.5 -45q123 0 224.5 48.5t174.5 127t111.5 182t38.5 214.5t-40 215t-111.5 184t-173 128t-226.5 48q-123 0 -225 -46t-176 -125t-114 -182.5t-40 -217.5v-2zM446 1642l355 295h147l348 -295h-223l-201 152l-202 -152h-224z" />
<glyph unicode="&#xd5;" horiz-adv-x="1742" d="M78 748v2q0 178 63.5 324.5t173 251t253 161.5t302.5 57q170 0 315.5 -61.5t252 -168t167 -249.5t60.5 -307t-60.5 -307.5t-167 -250t-253 -168t-316.5 -61.5q-172 0 -316 62.5t-249.5 169t-165 247t-59.5 298.5zM317 758q0 -119 42 -223.5t116 -182.5t176.5 -123 t222.5 -45q123 0 224.5 48.5t174.5 127t111.5 182t38.5 214.5t-40 215t-111.5 184t-173 128t-226.5 48q-123 0 -225 -46t-176 -125t-114 -182.5t-40 -217.5v-2zM475 1812q39 31 95.5 53.5t115.5 22.5q47 0 93 -10t87 -23q41 -12 80 -20t84 -8q98 0 158 53l80 -143 q-94 -78 -215 -78q-39 0 -86 10t-95 23q-45 14 -86 22t-75 8q-49 0 -86 -15t-70 -42z" />
<glyph unicode="&#xd6;" horiz-adv-x="1742" d="M78 748v2q0 178 63.5 324.5t173 251t253 161.5t302.5 57q170 0 315.5 -61.5t252 -168t167 -249.5t60.5 -307t-60.5 -307.5t-167 -250t-253 -168t-316.5 -61.5q-172 0 -316 62.5t-249.5 169t-165 247t-59.5 298.5zM317 758q0 -119 42 -223.5t116 -182.5t176.5 -123 t222.5 -45q123 0 224.5 48.5t174.5 127t111.5 182t38.5 214.5t-40 215t-111.5 184t-173 128t-226.5 48q-123 0 -225 -46t-176 -125t-114 -182.5t-40 -217.5v-2zM559 1651v278h207v-278h-207zM975 1651v278h207v-278h-207z" />
<glyph unicode="&#xd7;" horiz-adv-x="1228" d="M109 147l358 359l-358 354l147 148l356 -357l361 357l147 -148l-358 -354l356 -359l-147 -147l-357 358l-358 -358z" />
<glyph unicode="&#xd8;" horiz-adv-x="1742" d="M78 758q0 168 61.5 312t169 249.5t252 165t311.5 59.5q96 0 195.5 -23.5t194.5 -76.5l102 139h240l-187 -252q43 -41 88 -96t80 -128t57.5 -160t22.5 -189q0 -164 -60.5 -307.5t-167 -250t-253 -168t-316.5 -61.5q-129 0 -222 30t-159 67l-102 -136h-240l185 248 q-47 41 -93.5 97.5t-81 129t-56 160.5t-21.5 191zM317 762q0 -119 43 -221.5t113 -169.5l653 893q-47 31 -111.5 49t-142.5 18q-125 0 -227 -47t-175 -126t-113 -182.5t-40 -213.5zM621 250q47 -29 110.5 -47.5t140.5 -18.5q125 0 227.5 48.5t174.5 128t110.5 183 t38.5 212.5q0 111 -38.5 209t-110.5 178z" />
<glyph unicode="&#xd9;" horiz-adv-x="1343" d="M143 569v947h242v-947q0 -72 7 -135t48 -129q35 -53 95.5 -87t138.5 -34t138 32t91 85q43 66 50.5 130.5t7.5 137.5v947h239v-947q2 -152 -30.5 -266.5t-133.5 -198.5q-68 -61 -158 -97t-202 -36q-41 0 -89 6.5t-97.5 21.5t-95.5 41t-85 62q-55 49 -89 102.5t-51 112 t-21.5 121t-4.5 131.5zM295 1835l70 154l491 -271l-63 -131z" />
<glyph unicode="&#xda;" horiz-adv-x="1343" d="M143 569v947h242v-947q0 -72 7 -135t48 -129q35 -53 95.5 -87t138.5 -34t138 32t91 85q43 66 50.5 130.5t7.5 137.5v947h239v-947q2 -152 -30.5 -266.5t-133.5 -198.5q-68 -61 -158 -97t-202 -36q-41 0 -89 6.5t-97.5 21.5t-95.5 41t-85 62q-55 49 -89 102.5t-51 112 t-21.5 121t-4.5 131.5zM461 1726l489 273l72 -154l-496 -250z" />
<glyph unicode="&#xdb;" horiz-adv-x="1343" d="M143 569v947h242v-947q0 -72 7 -135t48 -129q35 -53 95.5 -87t138.5 -34t138 32t91 85q43 66 50.5 130.5t7.5 137.5v947h239v-947q2 -152 -30.5 -266.5t-133.5 -198.5q-68 -61 -158 -97t-202 -36q-41 0 -89 6.5t-97.5 21.5t-95.5 41t-85 62q-55 49 -89 102.5t-51 112 t-21.5 121t-4.5 131.5zM248 1632l354 295h148l348 -295h-224l-202 152l-201 -152h-223z" />
<glyph unicode="&#xdc;" horiz-adv-x="1343" d="M143 569v947h242v-947q0 -72 7 -135t48 -129q35 -53 95.5 -87t138.5 -34t138 32t91 85q43 66 50.5 130.5t7.5 137.5v947h239v-947q2 -152 -30.5 -266.5t-133.5 -198.5q-68 -61 -158 -97t-202 -36q-41 0 -89 6.5t-97.5 21.5t-95.5 41t-85 62q-55 49 -89 102.5t-51 112 t-21.5 121t-4.5 131.5zM360 1638v277h207v-277h-207zM776 1638v277h207v-277h-207z" />
<glyph unicode="&#xdd;" horiz-adv-x="1239" d="M25 1516h262l334 -750l333 750h263l-476 -977v-539h-241v539zM436 1726l490 273l71 -154l-495 -250z" />
<glyph unicode="&#xde;" horiz-adv-x="1187" d="M137 0v1516h242v-252h190q90 0 156 -6.5t115 -18.5t85 -30.5t70 -45.5q80 -63 124 -163.5t44 -211.5q0 -55 -11 -109t-31.5 -103.5t-50.5 -90.5t-64 -67q-39 -31 -77 -52.5t-86 -35t-108.5 -19.5t-142.5 -6h-213v-305h-242zM379 516h209q76 0 131 10.5t104 40.5 q47 29 78 85.5t31 131.5q0 78 -32 133.5t-79 83.5q-51 31 -107.5 40.5t-133.5 9.5h-201v-535z" />
<glyph unicode="&#xdf;" horiz-adv-x="1296" d="M135 0v918q0 88 4 154.5t16.5 118.5t34 94t54.5 81q72 92 177 137t210 45q100 0 183 -32.5t140.5 -90t89 -132t31.5 -160.5q0 -61 -15.5 -110.5t-41 -87.5t-58 -66.5t-67.5 -47.5q74 -14 134 -51t103.5 -89t67 -117.5t23.5 -135.5q0 -92 -36 -176t-100.5 -146.5 t-154.5 -100.5t-199 -38q-143 2 -243.5 69.5t-139.5 196.5v-233h-213zM348 412h129q10 -121 84 -182.5t174 -63.5q61 0 111.5 20.5t86.5 55t55.5 81t19.5 99.5q0 35 -13.5 90t-68.5 104q-35 31 -93.5 51.5t-177.5 22.5h-98v164h64q49 0 93 18.5t76.5 51t52 78t19.5 98.5 q0 119 -70.5 184.5t-181.5 65.5q-78 0 -132 -34t-83 -87q-33 -59 -40 -122t-7 -136v-559z" />
<glyph unicode="&#xe0;" horiz-adv-x="1415" d="M76 557q0 127 44 235.5t120.5 187.5t181 123t225.5 44q82 0 150.5 -20.5t121 -54.5t88 -75t54.5 -79v196h213v-1114h-213v195q-59 -113 -170 -170.5t-244 -57.5q-135 0 -240.5 48t-179 130t-112.5 188.5t-39 223.5zM289 553q0 -61 23.5 -130t70.5 -126t119.5 -94 t175.5 -37q129 0 217 62.5t129 158.5q18 39 27.5 81t11.5 85q4 90 -33 166q-41 98 -131 163.5t-225 65.5q-88 0 -159 -31.5t-121 -86t-77.5 -126t-27.5 -149.5v-2zM381 1485l70 153l491 -272l-63 -131z" />
<glyph unicode="&#xe1;" horiz-adv-x="1415" d="M76 557q0 127 44 235.5t120.5 187.5t181 123t225.5 44q82 0 150.5 -20.5t121 -54.5t88 -75t54.5 -79v196h213v-1114h-213v195q-59 -113 -170 -170.5t-244 -57.5q-135 0 -240.5 48t-179 130t-112.5 188.5t-39 223.5zM289 553q0 -61 23.5 -130t70.5 -126t119.5 -94 t175.5 -37q129 0 217 62.5t129 158.5q18 39 27.5 81t11.5 85q4 90 -33 166q-41 98 -131 163.5t-225 65.5q-88 0 -159 -31.5t-121 -86t-77.5 -126t-27.5 -149.5v-2zM453 1374l489 275l72 -156l-496 -250z" />
<glyph unicode="&#xe2;" horiz-adv-x="1415" d="M76 557q0 127 44 235.5t120.5 187.5t181 123t225.5 44q82 0 150.5 -20.5t121 -54.5t88 -75t54.5 -79v196h213v-1114h-213v195q-59 -113 -170 -170.5t-244 -57.5q-135 0 -240.5 48t-179 130t-112.5 188.5t-39 223.5zM266 1282l355 295h147l348 -295h-223l-201 152 l-203 -152h-223zM289 553q0 -61 23.5 -130t70.5 -126t119.5 -94t175.5 -37q129 0 217 62.5t129 158.5q18 39 27.5 81t11.5 85q4 90 -33 166q-41 98 -131 163.5t-225 65.5q-88 0 -159 -31.5t-121 -86t-77.5 -126t-27.5 -149.5v-2z" />
<glyph unicode="&#xe3;" horiz-adv-x="1415" d="M76 557q0 127 44 235.5t120.5 187.5t181 123t225.5 44q82 0 150.5 -20.5t121 -54.5t88 -75t54.5 -79v196h213v-1114h-213v195q-59 -113 -170 -170.5t-244 -57.5q-135 0 -240.5 48t-179 130t-112.5 188.5t-39 223.5zM289 553q0 -61 23.5 -130t70.5 -126t119.5 -94 t175.5 -37q129 0 217 62.5t129 158.5q18 39 27.5 81t11.5 85q4 90 -33 166q-41 98 -131 163.5t-225 65.5q-88 0 -159 -31.5t-121 -86t-77.5 -126t-27.5 -149.5v-2zM301 1450q39 33 95.5 55.5t115.5 22.5q47 0 93 -10.5t87 -22.5t79 -21.5t85 -9.5q96 0 156 56l82 -144 q-96 -78 -215 -78q-39 0 -87.5 10.5t-93.5 22.5t-86 21.5t-75 9.5q-49 0 -87 -15.5t-69 -41.5z" />
<glyph unicode="&#xe4;" horiz-adv-x="1415" d="M76 557q0 127 44 235.5t120.5 187.5t181 123t225.5 44q82 0 150.5 -20.5t121 -54.5t88 -75t54.5 -79v196h213v-1114h-213v195q-59 -113 -170 -170.5t-244 -57.5q-135 0 -240.5 48t-179 130t-112.5 188.5t-39 223.5zM289 553q0 -61 23.5 -130t70.5 -126t119.5 -94 t175.5 -37q129 0 217 62.5t129 158.5q18 39 27.5 81t11.5 85q4 90 -33 166q-41 98 -131 163.5t-225 65.5q-88 0 -159 -31.5t-121 -86t-77.5 -126t-27.5 -149.5v-2zM371 1286v277h207v-277h-207zM786 1286v277h207v-277h-207z" />
<glyph unicode="&#xe5;" horiz-adv-x="1415" d="M76 557q0 127 44 235.5t120.5 187.5t181 123t225.5 44q82 0 150.5 -20.5t121 -54.5t88 -75t54.5 -79v196h213v-1114h-213v195q-59 -113 -170 -170.5t-244 -57.5q-135 0 -240.5 48t-179 130t-112.5 188.5t-39 223.5zM289 553q0 -61 23.5 -130t70.5 -126t119.5 -94 t175.5 -37q129 0 217 62.5t129 158.5q18 39 27.5 81t11.5 85q4 90 -33 166q-41 98 -131 163.5t-225 65.5q-88 0 -159 -31.5t-121 -86t-77.5 -126t-27.5 -149.5v-2zM449 1436q0 47 18 88t49 71.5t72 49t88 18.5h2q45 0 86 -18.5t71.5 -49t49 -71.5t18.5 -88t-18.5 -88 t-49 -72t-71.5 -48.5t-88 -17.5t-88 17.5t-72 48.5t-49 72t-18 88zM567 1438q0 -45 32 -76t77 -31t76.5 31t31.5 76t-30.5 76.5t-77.5 31.5h-2q-45 0 -76 -31.5t-31 -76.5z" />
<glyph unicode="&#xe6;" horiz-adv-x="2291" d="M76 555q0 125 43 233.5t119.5 188.5t183 125t231.5 45q141 0 248 -63.5t158 -172.5v203h196v-201q61 115 163 174.5t231 59.5q119 0 221 -45t180 -125t127 -203t37 -278h-946q10 -104 53 -172t98.5 -106t114.5 -53t104 -15q61 0 111.5 17t90.5 45t71 60.5t53 65.5h219 q-33 -74 -83 -141.5t-115.5 -118.5t-148.5 -81t-181 -30q-137 0 -240.5 64.5t-159.5 179.5v-211h-196v211q-47 -109 -157.5 -176.5t-250.5 -67.5q-147 0 -255.5 56.5t-179.5 143.5t-105.5 190.5t-34.5 197.5zM289 559q0 -86 29.5 -158.5t83 -125t124 -81t154.5 -28.5 q80 0 148.5 31.5t119.5 85t81 124t30 148.5q0 82 -27.5 152.5t-79.5 123.5q-53 53 -122.5 85t-155.5 32q-92 0 -164 -34.5t-121 -91t-74.5 -125t-25.5 -136.5v-2zM1272 643h733q-35 166 -134 244t-231 78q-76 0 -144.5 -26t-127.5 -89q-49 -53 -67.5 -106.5t-28.5 -100.5z " />
<glyph unicode="&#xe7;" horiz-adv-x="1304" d="M76 559q0 123 45 230.5t123 186.5t185.5 125t232.5 46q100 0 192 -30t169 -86t132 -136t82 -180h-219q-43 111 -138.5 170t-209.5 59q-86 0 -149.5 -26.5t-123.5 -81.5q-49 -47 -78.5 -121t-29.5 -158q0 -86 29.5 -157.5t81 -124t121 -81t149.5 -28.5q70 0 127 20.5 t100 52t73.5 71.5t47.5 81h219q-25 -88 -76 -163.5t-121.5 -132t-159.5 -89.5t-194 -37l-41 -82q14 6 37 7q61 0 112.5 -45.5t51.5 -122.5q0 -35 -12.5 -68t-36 -59.5t-60.5 -43t-86 -16.5q-12 0 -39.5 4t-58.5 19.5t-57.5 48.5t-34.5 90h110q10 -35 33 -49t47 -14 q35 0 58.5 23.5t25.5 64.5q-2 37 -25.5 58t-56.5 21q-41 0 -67 -38l-94 43l77 167q-106 16 -196 66.5t-156.5 126.5t-103.5 175t-37 214z" />
<glyph unicode="&#xe8;" horiz-adv-x="1298" d="M61 555q0 119 44.5 226.5t123 189.5t186 129t234.5 47q121 0 226.5 -43t185.5 -121q98 -100 140 -226t28 -268h-953q4 -84 39 -147t89.5 -106t119 -64.5t127.5 -21.5q113 0 194 50t128 138h221q-41 -92 -97.5 -160.5t-127.5 -116.5q-72 -47 -152 -70.5t-166 -23.5 q-137 0 -245.5 50.5t-185.5 133t-118 188t-41 216.5zM281 655h737q-4 55 -33 110.5t-77 100.5t-113.5 73t-145.5 26q-82 0 -148.5 -27t-113.5 -71t-74.5 -99t-31.5 -113zM340 1485l70 153l491 -272l-65 -131z" />
<glyph unicode="&#xe9;" horiz-adv-x="1298" d="M61 555q0 119 44.5 226.5t123 189.5t186 129t234.5 47q121 0 226.5 -43t185.5 -121q98 -100 140 -226t28 -268h-953q4 -84 39 -147t89.5 -106t119 -64.5t127.5 -21.5q113 0 194 50t128 138h221q-41 -92 -97.5 -160.5t-127.5 -116.5q-72 -47 -152 -70.5t-166 -23.5 q-137 0 -245.5 50.5t-185.5 133t-118 188t-41 216.5zM281 655h737q-4 55 -33 110.5t-77 100.5t-113.5 73t-145.5 26q-82 0 -148.5 -27t-113.5 -71t-74.5 -99t-31.5 -113zM395 1374l488 275l73 -156l-497 -250z" />
<glyph unicode="&#xea;" horiz-adv-x="1298" d="M61 555q0 119 44.5 226.5t123 189.5t186 129t234.5 47q121 0 226.5 -43t185.5 -121q98 -100 140 -226t28 -268h-953q4 -84 39 -147t89.5 -106t119 -64.5t127.5 -21.5q113 0 194 50t128 138h221q-41 -92 -97.5 -160.5t-127.5 -116.5q-72 -47 -152 -70.5t-166 -23.5 q-137 0 -245.5 50.5t-185.5 133t-118 188t-41 216.5zM225 1282l353 295h147l348 -295h-221l-203 152l-200 -152h-224zM281 655h737q-4 55 -33 110.5t-77 100.5t-113.5 73t-145.5 26q-82 0 -148.5 -27t-113.5 -71t-74.5 -99t-31.5 -113z" />
<glyph unicode="&#xeb;" horiz-adv-x="1298" d="M61 555q0 119 44.5 226.5t123 189.5t186 129t234.5 47q121 0 226.5 -43t185.5 -121q98 -100 140 -226t28 -268h-953q4 -84 39 -147t89.5 -106t119 -64.5t127.5 -21.5q113 0 194 50t128 138h221q-41 -92 -97.5 -160.5t-127.5 -116.5q-72 -47 -152 -70.5t-166 -23.5 q-137 0 -245.5 50.5t-185.5 133t-118 188t-41 216.5zM281 655h737q-4 55 -33 110.5t-77 100.5t-113.5 73t-145.5 26q-82 0 -148.5 -27t-113.5 -71t-74.5 -99t-31.5 -113zM334 1286v277h207v-277h-207zM750 1286v277h206v-277h-206z" />
<glyph unicode="&#xec;" horiz-adv-x="491" d="M-106 1485l69 153l492 -272l-64 -131zM139 0v1114h213v-1114h-213z" />
<glyph unicode="&#xed;" horiz-adv-x="491" d="M35 1374l489 275l72 -156l-496 -250zM139 0v1114h213v-1114h-213z" />
<glyph unicode="&#xee;" horiz-adv-x="491" d="M-178 1282l354 295h148l348 -295h-223l-201 152l-201 -152h-225zM139 0v1114h213v-1114h-213z" />
<glyph unicode="&#xef;" horiz-adv-x="491" d="M-63 1286v277h204v-277h-204zM139 0v1114h213v-1114h-213zM350 1286v277h207v-277h-207z" />
<glyph unicode="&#xf0;" horiz-adv-x="1341" d="M76 555q0 137 46 244.5t120.5 182.5t173 115t207.5 40q86 0 170 -34t143 -97q-14 29 -30.5 52t-39.5 48q-43 47 -96 89t-102 69l-471 -134v148l307 86q-59 31 -124 55.5t-136 48.5l223 66q63 -23 126.5 -50.5t135.5 -66.5l422 117v-148l-266 -73q84 -53 157.5 -130 t126.5 -173q47 -90 72 -196.5t25 -213.5q0 -141 -46 -258t-127 -199t-189.5 -128t-233.5 -46q-119 0 -226.5 40t-189.5 116t-130 184.5t-48 245.5zM289 557q0 -78 26.5 -148.5t75.5 -124t120 -85t161 -31.5t160.5 34t119.5 88t75 124.5t26 144.5t-28 144.5t-77 125 t-118.5 87t-151.5 32.5q-92 0 -165 -31.5t-122 -86t-75.5 -125t-26.5 -146.5v-2z" />
<glyph unicode="&#xf1;" horiz-adv-x="1302" d="M139 0v1114h201v-172q41 86 134 146.5t243 58.5q133 -2 220 -46t138 -115t71.5 -159t20.5 -174v-653h-215v604q0 76 -15 138.5t-50 108.5t-91.5 70.5t-138.5 24.5q-158 -2 -231.5 -91t-73.5 -234v-621h-213zM256 1450q39 33 95.5 55.5t115.5 22.5q47 0 93 -10.5t87 -22.5 t80 -21.5t84 -9.5q96 0 158 56l80 -144q-96 -78 -215 -78q-39 0 -87.5 10.5t-93.5 22.5t-86 21.5t-75 9.5q-49 0 -87 -15.5t-69 -41.5z" />
<glyph unicode="&#xf2;" horiz-adv-x="1341" d="M76 557v2q0 111 40 217.5t116.5 188.5t186 132t251.5 50q141 0 250.5 -50t186.5 -133t117 -188.5t40 -218.5t-40 -218.5t-117 -187t-186.5 -132t-250.5 -50.5t-251 50.5t-186.5 132t-116.5 187t-40 218.5zM289 555q0 -84 29.5 -154.5t81 -122t121 -81t149.5 -29.5 t149.5 29.5t120.5 82t81 123t30 154.5t-30 154.5t-81 123t-120.5 82t-149.5 29.5t-149.5 -29.5t-121 -82t-81 -123t-29.5 -154.5v-2zM360 1485l70 153l492 -272l-64 -131z" />
<glyph unicode="&#xf3;" horiz-adv-x="1341" d="M76 557v2q0 111 40 217.5t116.5 188.5t186 132t251.5 50q141 0 250.5 -50t186.5 -133t117 -188.5t40 -218.5t-40 -218.5t-117 -187t-186.5 -132t-250.5 -50.5t-251 50.5t-186.5 132t-116.5 187t-40 218.5zM289 555q0 -84 29.5 -154.5t81 -122t121 -81t149.5 -29.5 t149.5 29.5t120.5 82t81 123t30 154.5t-30 154.5t-81 123t-120.5 82t-149.5 29.5t-149.5 -29.5t-121 -82t-81 -123t-29.5 -154.5v-2zM416 1374l489 275l72 -156l-496 -250z" />
<glyph unicode="&#xf4;" horiz-adv-x="1341" d="M76 557v2q0 111 40 217.5t116.5 188.5t186 132t251.5 50q141 0 250.5 -50t186.5 -133t117 -188.5t40 -218.5t-40 -218.5t-117 -187t-186.5 -132t-250.5 -50.5t-251 50.5t-186.5 132t-116.5 187t-40 218.5zM246 1282l354 295h148l348 -295h-224l-200 152l-201 -152h-225z M289 555q0 -84 29.5 -154.5t81 -122t121 -81t149.5 -29.5t149.5 29.5t120.5 82t81 123t30 154.5t-30 154.5t-81 123t-120.5 82t-149.5 29.5t-149.5 -29.5t-121 -82t-81 -123t-29.5 -154.5v-2z" />
<glyph unicode="&#xf5;" horiz-adv-x="1341" d="M76 557v2q0 111 40 217.5t116.5 188.5t186 132t251.5 50q141 0 250.5 -50t186.5 -133t117 -188.5t40 -218.5t-40 -218.5t-117 -187t-186.5 -132t-250.5 -50.5t-251 50.5t-186.5 132t-116.5 187t-40 218.5zM274 1450q39 33 95.5 55.5t115.5 22.5q47 0 93.5 -10.5 t87.5 -22.5t79.5 -21.5t83.5 -9.5q53 0 91 14.5t67 41.5l80 -144q-94 -78 -215 -78q-39 0 -86 10.5t-92 22.5q-47 12 -87 21.5t-75 9.5q-51 0 -88 -15.5t-70 -41.5zM289 555q0 -84 29.5 -154.5t81 -122t121 -81t149.5 -29.5t149.5 29.5t120.5 82t81 123t30 154.5t-30 154.5 t-81 123t-120.5 82t-149.5 29.5t-149.5 -29.5t-121 -82t-81 -123t-29.5 -154.5v-2z" />
<glyph unicode="&#xf6;" horiz-adv-x="1341" d="M76 557v2q0 111 40 217.5t116.5 188.5t186 132t251.5 50q141 0 250.5 -50t186.5 -133t117 -188.5t40 -218.5t-40 -218.5t-117 -187t-186.5 -132t-250.5 -50.5t-251 50.5t-186.5 132t-116.5 187t-40 218.5zM289 555q0 -84 29.5 -154.5t81 -122t121 -81t149.5 -29.5 t149.5 29.5t120.5 82t81 123t30 154.5t-30 154.5t-81 123t-120.5 82t-149.5 29.5t-149.5 -29.5t-121 -82t-81 -123t-29.5 -154.5v-2zM360 1286v277h205v-277h-205zM776 1286v277h205v-277h-205z" />
<glyph unicode="&#xf7;" horiz-adv-x="1228" d="M100 412v206h1028v-206h-1028zM512 -63v253h205v-253h-205zM512 840v256h205v-256h-205z" />
<glyph unicode="&#xf8;" horiz-adv-x="1341" d="M76 555q0 113 40 220.5t116.5 189.5t187 132t252.5 50q94 0 164.5 -21.5t111.5 -46.5l74 105h217l-149 -205q84 -84 129 -191.5t45 -230.5q0 -115 -41 -220.5t-117 -188t-186.5 -132t-247.5 -49.5q-92 0 -162 20.5t-117 47.5l-76 -105h-217l150 203q-78 74 -126 183.5 t-48 238.5zM289 557q0 -82 27.5 -145.5t70.5 -104.5l440 600q-68 39 -155 39q-82 0 -151.5 -29.5t-121 -82t-81 -124t-29.5 -153.5zM516 207q33 -18 71 -29.5t83 -11.5q86 0 155.5 30.5t119.5 85t78 125t28 150.5q0 82 -28 143.5t-69 102.5z" />
<glyph unicode="&#xf9;" horiz-adv-x="1304" d="M137 461v653h213v-604q0 -76 15.5 -138.5t51.5 -108.5t92 -71.5t138 -25.5q158 2 231.5 92t73.5 234v622h213v-1114h-200v172q-41 -86 -134.5 -146.5t-242.5 -58.5q-135 0 -222 45t-137.5 116t-71 159t-20.5 174zM274 1485l72 153l492 -272l-66 -131z" />
<glyph unicode="&#xfa;" horiz-adv-x="1304" d="M137 461v653h213v-604q0 -76 15.5 -138.5t51.5 -108.5t92 -71.5t138 -25.5q158 2 231.5 92t73.5 234v622h213v-1114h-200v172q-41 -86 -134.5 -146.5t-242.5 -58.5q-135 0 -222 45t-137.5 116t-71 159t-20.5 174zM442 1374l488 275l74 -156l-498 -250z" />
<glyph unicode="&#xfb;" horiz-adv-x="1304" d="M137 461v653h213v-604q0 -76 15.5 -138.5t51.5 -108.5t92 -71.5t138 -25.5q158 2 231.5 92t73.5 234v622h213v-1114h-200v172q-41 -86 -134.5 -146.5t-242.5 -58.5q-135 0 -222 45t-137.5 116t-71 159t-20.5 174zM227 1282l355 295h147l348 -295h-223l-201 152l-200 -152 h-226z" />
<glyph unicode="&#xfc;" horiz-adv-x="1304" d="M137 461v653h213v-604q0 -76 15.5 -138.5t51.5 -108.5t92 -71.5t138 -25.5q158 2 231.5 92t73.5 234v622h213v-1114h-200v172q-41 -86 -134.5 -146.5t-242.5 -58.5q-135 0 -222 45t-137.5 116t-71 159t-20.5 174zM342 1286v277h205v-277h-205zM758 1286v277h205v-277 h-205z" />
<glyph unicode="&#xfd;" horiz-adv-x="1089" d="M10 1114h230l307 -815l311 815h229l-608 -1520h-227l184 439zM362 1374l488 275l74 -156l-498 -250z" />
<glyph unicode="&#xfe;" horiz-adv-x="1411" d="M139 -406v1922h213v-451v-137q33 57 80 98t102.5 67.5t116 40t119.5 13.5q139 0 244.5 -52.5t177.5 -137.5t107.5 -191.5t35.5 -214.5q0 -123 -42 -229.5t-117.5 -185.5t-178 -124t-225.5 -45q-84 0 -150.5 19.5t-118.5 50.5t-90 69.5t-61 77.5v-141v-449h-213zM342 553 q0 -72 28.5 -141.5t80.5 -124.5q51 -53 122.5 -87t159.5 -34q86 0 158 30.5t123 85t79.5 125t28.5 150.5v2q0 76 -27.5 146.5t-77.5 124t-123 85t-161 31.5q-84 0 -154.5 -30.5t-123.5 -84.5q-53 -53 -83 -124.5t-30 -153.5z" />
<glyph unicode="&#xff;" horiz-adv-x="1089" d="M10 1114h230l307 -815l311 815h229l-608 -1520h-227l184 439zM233 1286v277h207v-277h-207zM649 1286v277h207v-277h-207z" />
<glyph unicode="&#x152;" horiz-adv-x="2308" d="M78 756q0 160 56 303t159.5 250.5t248 171t320.5 63.5q106 0 194.5 -23.5t158 -64.5t119.5 -94t79 -113v135v132h782v-213h-548v-431h538v-210h-538v-449h548v-213h-782v133v133q-94 -143 -242.5 -219t-310.5 -76q-166 0 -309 60.5t-248.5 167t-165 249t-59.5 308.5z M317 754q0 -109 38 -211.5t109 -182t171 -128t227 -48.5q125 0 226.5 47.5t173 127t110.5 184t39 219.5q-2 119 -42 222t-111.5 180t-172 122t-221.5 45q-125 0 -225 -46t-172 -125t-111 -183.5t-39 -220.5v-2z" />
<glyph unicode="&#x153;" horiz-adv-x="2277" d="M76 555q0 119 43 226.5t120.5 189.5t188.5 129t246 47q82 0 154.5 -21.5t134 -60.5t109.5 -90t77 -113q20 43 60 92.5t99.5 91t137.5 69.5t176 28q123 0 229.5 -46t184.5 -128q92 -92 136 -217t28 -254h-947q6 -84 38 -148.5t81 -109.5t113.5 -67.5t134.5 -22.5 q111 0 196 50t128 138h221q-23 -53 -65 -120.5t-124 -131.5q-74 -55 -159.5 -87t-190.5 -32q-100 0 -179 25.5t-137.5 67.5t-98.5 93.5t-62 100.5q-59 -125 -182 -206t-303 -81q-145 0 -256 54.5t-184.5 139.5t-110.5 189.5t-37 204.5zM289 555q0 -82 29.5 -152.5t81 -123 t121 -83t151.5 -30.5q86 0 155.5 35t118.5 90t76 124.5t27 139.5q0 72 -27 142.5t-76 126t-118.5 90t-155.5 34.5q-76 0 -145.5 -27.5t-122 -78.5t-84 -124t-31.5 -161v-2zM1262 645h725q-6 55 -34 110.5t-74 101.5t-109.5 75t-145.5 29q-70 0 -131 -23t-109.5 -65t-81 -100 t-40.5 -128z" />
<glyph unicode="&#x178;" horiz-adv-x="1239" d="M25 1516h262l334 -750l333 750h263l-476 -977v-539h-241v539zM309 1638v277h205v-277h-205zM725 1638v277h205v-277h-205z" />
<glyph unicode="&#x2c6;" horiz-adv-x="1136" d="M143 1282l355 295h147l348 -295h-223l-201 152l-202 -152h-224z" />
<glyph unicode="&#x2dc;" horiz-adv-x="1136" d="M172 1450q39 33 95.5 55.5t115.5 22.5q47 0 93 -10.5t87 -22.5t80 -21.5t84 -9.5q96 0 158 56l80 -144q-94 -78 -215 -78q-39 0 -86.5 10.5t-94.5 22.5q-45 12 -86 21.5t-75 9.5q-49 0 -86 -15.5t-70 -41.5z" />
<glyph unicode="&#x2000;" horiz-adv-x="1006" />
<glyph unicode="&#x2001;" horiz-adv-x="2013" />
<glyph unicode="&#x2002;" horiz-adv-x="1006" />
<glyph unicode="&#x2003;" horiz-adv-x="2013" />
<glyph unicode="&#x2004;" horiz-adv-x="671" />
<glyph unicode="&#x2005;" horiz-adv-x="503" />
<glyph unicode="&#x2006;" horiz-adv-x="335" />
<glyph unicode="&#x2007;" horiz-adv-x="335" />
<glyph unicode="&#x2008;" horiz-adv-x="251" />
<glyph unicode="&#x2009;" horiz-adv-x="402" />
<glyph unicode="&#x200a;" horiz-adv-x="111" />
<glyph unicode="&#x2010;" horiz-adv-x="561" d="M0 475v211h561v-211h-561z" />
<glyph unicode="&#x2011;" horiz-adv-x="561" d="M0 475v211h561v-211h-561z" />
<glyph unicode="&#x2012;" horiz-adv-x="561" d="M0 475v211h561v-211h-561z" />
<glyph unicode="&#x2013;" horiz-adv-x="1024" d="M72 475v211h880v-211h-880z" />
<glyph unicode="&#x2014;" horiz-adv-x="2048" d="M72 475v211h1904v-211h-1904z" />
<glyph unicode="&#x2018;" horiz-adv-x="608" d="M180 1516h191l153 -424h-166z" />
<glyph unicode="&#x2019;" horiz-adv-x="608" d="M84 1092l154 424h192l-180 -424h-166z" />
<glyph unicode="&#x201a;" horiz-adv-x="608" d="M84 -182l154 424h192l-180 -424h-166z" />
<glyph unicode="&#x201c;" horiz-adv-x="966" d="M223 1516h191l153 -424h-166zM514 1516h191l153 -424h-166z" />
<glyph unicode="&#x201d;" horiz-adv-x="966" d="M109 1092l153 424h191l-179 -424h-165zM399 1092l154 424h190l-178 -424h-166z" />
<glyph unicode="&#x201e;" horiz-adv-x="966" d="M109 -182l153 424h191l-179 -424h-165zM399 -182l154 424h190l-178 -424h-166z" />
<glyph unicode="&#x2022;" horiz-adv-x="1179" d="M338 768q0 51 18.5 97t52 81t81 55.5t102.5 20.5h2q51 0 96 -20.5t79 -54.5t53.5 -81t19.5 -98q0 -53 -19.5 -98t-54.5 -80t-81 -54.5t-97 -19.5q-53 0 -99.5 20.5t-80 54.5t-53 80t-19.5 97z" />
<glyph unicode="&#x2026;" horiz-adv-x="2048" d="M231 0v268h224v-268h-224zM913 0v268h224v-268h-224zM1595 0v268h224v-268h-224z" />
<glyph unicode="&#x202f;" horiz-adv-x="402" />
<glyph unicode="&#x2039;" horiz-adv-x="479" d="M55 573l215 383h164l-215 -383l215 -380h-164z" />
<glyph unicode="&#x203a;" horiz-adv-x="479" d="M45 193l215 380l-215 383h164l215 -383l-215 -380h-164z" />
<glyph unicode="&#x205f;" horiz-adv-x="503" />
<glyph unicode="&#x20ac;" horiz-adv-x="1136" d="M2 547l29 155h145v58q0 20 1 38.5t1 37.5h-176l29 155h157q14 123 48 225.5t92.5 176t142.5 114.5t199 41q119 0 199.5 -43t131 -105.5t76 -134t31.5 -128.5h-199q-23 106 -86 161.5t-151 55.5q-119 0 -180.5 -90t-83.5 -273h491l-29 -155h-475v-76v-58h453l-29 -155 h-411q8 -86 28.5 -155.5t53 -120t78.5 -78t108 -27.5q33 0 68.5 6t68.5 30.5t59.5 72t38.5 128.5h203q-10 -123 -49 -205.5t-100.5 -133t-139 -72t-163.5 -21.5q-115 0 -198 42t-140.5 118t-90 182.5t-47.5 233.5h-184z" />
<glyph unicode="&#x2122;" horiz-adv-x="2027" d="M33 1374v142h600v-142h-217v-768h-168v768h-215zM756 606v910h213l293 -682l288 682h213v-910h-157v713l-291 -713h-111l-291 709v-709h-157z" />
<glyph unicode="&#x25fc;" horiz-adv-x="1116" d="M0 0v1116h1116v-1116h-1116z" />
</font>
</defs>
</svg>
